<?xml version="1.0" encoding="utf-8" standalone="no"?>
<!DOCTYPE svg PUBLIC "-//W3C//DTD SVG 1.1//EN"
  "http://www.w3.org/Graphics/SVG/1.1/DTD/svg11.dtd">
<svg xmlns:xlink="http://www.w3.org/1999/xlink" width="562.26625pt" height="568.651875pt" viewBox="0 0 562.26625 568.651875" xmlns="http://www.w3.org/2000/svg" version="1.1">
 <metadata>
  <rdf:RDF xmlns:dc="http://purl.org/dc/elements/1.1/" xmlns:cc="http://creativecommons.org/ns#" xmlns:rdf="http://www.w3.org/1999/02/22-rdf-syntax-ns#">
   <cc:Work>
    <dc:type rdf:resource="http://purl.org/dc/dcmitype/StillImage"/>
    <dc:date>2023-11-26T14:27:18.408526</dc:date>
    <dc:format>image/svg+xml</dc:format>
    <dc:creator>
     <cc:Agent>
      <dc:title>Matplotlib v3.8.1, https://matplotlib.org/</dc:title>
     </cc:Agent>
    </dc:creator>
   </cc:Work>
  </rdf:RDF>
 </metadata>
 <defs>
  <style type="text/css">*{stroke-linejoin: round; stroke-linecap: butt}</style>
 </defs>
 <g id="figure_1">
  <g id="patch_1">
   <path d="M 0 568.651875 
L 562.26625 568.651875 
L 562.26625 0 
L 0 0 
z
" style="fill: #ffffff"/>
  </g>
  <g id="axes_1">
   <g id="patch_2">
    <path d="M 529.0225 293.132812 
C 529.0225 260.371399 522.569216 227.928549 510.031966 197.66095 
C 497.494716 167.39335 479.117317 139.88963 455.9515 116.723813 
C 432.785682 93.557995 405.281962 75.180597 375.014363 62.643347 
C 344.746763 50.106097 312.303913 43.652812 279.5425 43.652812 
C 246.781087 43.652812 214.338237 50.106097 184.070637 62.643347 
C 153.803038 75.180597 126.299318 93.557995 103.1335 116.723813 
C 79.967683 139.88963 61.590284 167.39335 49.053034 197.66095 
C 36.515784 227.928549 30.0625 260.371399 30.0625 293.132812 
C 30.0625 325.894226 36.515784 358.337076 49.053034 388.604675 
C 61.590284 418.872275 79.967683 446.375995 103.1335 469.541812 
C 126.299318 492.70763 153.803038 511.085028 184.070637 523.622278 
C 214.338237 536.159528 246.781087 542.612812 279.5425 542.612812 
C 312.303913 542.612812 344.746763 536.159528 375.014363 523.622278 
C 405.281962 511.085028 432.785682 492.70763 455.9515 469.541812 
C 479.117317 446.375995 497.494716 418.872275 510.031966 388.604675 
C 522.569216 358.337076 529.0225 325.894226 529.0225 293.132812 
M 279.5425 293.132812 
C 279.5425 293.132812 279.5425 293.132812 279.5425 293.132812 
C 279.5425 293.132812 279.5425 293.132812 279.5425 293.132812 
C 279.5425 293.132812 279.5425 293.132812 279.5425 293.132812 
C 279.5425 293.132812 279.5425 293.132812 279.5425 293.132812 
C 279.5425 293.132812 279.5425 293.132812 279.5425 293.132812 
C 279.5425 293.132812 279.5425 293.132812 279.5425 293.132812 
C 279.5425 293.132812 279.5425 293.132812 279.5425 293.132812 
C 279.5425 293.132812 279.5425 293.132812 279.5425 293.132812 
C 279.5425 293.132812 279.5425 293.132812 279.5425 293.132812 
C 279.5425 293.132812 279.5425 293.132812 279.5425 293.132812 
C 279.5425 293.132812 279.5425 293.132812 279.5425 293.132812 
C 279.5425 293.132812 279.5425 293.132812 279.5425 293.132812 
C 279.5425 293.132812 279.5425 293.132812 279.5425 293.132812 
C 279.5425 293.132812 279.5425 293.132812 279.5425 293.132812 
C 279.5425 293.132812 279.5425 293.132812 279.5425 293.132812 
C 279.5425 293.132812 279.5425 293.132812 279.5425 293.132812 
z
" style="fill: #ffffff"/>
   </g>
   <g id="matplotlib.axis_1">
    <g id="xtick_1">
     <g id="line2d_1">
      <path d="M 279.5425 293.132812 
L 279.5425 43.652812 
" clip-path="url(#p9c68953ecc)" style="fill: none; stroke: #b0b0b0; stroke-width: 0.8; stroke-linecap: square"/>
     </g>
     <g id="text_1">
      <!-- 0° -->
      <g transform="translate(273.86125 32.412187) scale(0.1 -0.1)">
       <defs>
        <path id="DejaVuSans-30" d="M 2034 4250 
Q 1547 4250 1301 3770 
Q 1056 3291 1056 2328 
Q 1056 1369 1301 889 
Q 1547 409 2034 409 
Q 2525 409 2770 889 
Q 3016 1369 3016 2328 
Q 3016 3291 2770 3770 
Q 2525 4250 2034 4250 
z
M 2034 4750 
Q 2819 4750 3233 4129 
Q 3647 3509 3647 2328 
Q 3647 1150 3233 529 
Q 2819 -91 2034 -91 
Q 1250 -91 836 529 
Q 422 1150 422 2328 
Q 422 3509 836 4129 
Q 1250 4750 2034 4750 
z
" transform="scale(0.015625)"/>
        <path id="DejaVuSans-b0" d="M 1600 4347 
Q 1350 4347 1178 4173 
Q 1006 4000 1006 3750 
Q 1006 3503 1178 3333 
Q 1350 3163 1600 3163 
Q 1850 3163 2022 3333 
Q 2194 3503 2194 3750 
Q 2194 3997 2020 4172 
Q 1847 4347 1600 4347 
z
M 1600 4750 
Q 1800 4750 1984 4673 
Q 2169 4597 2303 4453 
Q 2447 4313 2519 4134 
Q 2591 3956 2591 3750 
Q 2591 3338 2302 3052 
Q 2013 2766 1594 2766 
Q 1172 2766 890 3047 
Q 609 3328 609 3750 
Q 609 4169 896 4459 
Q 1184 4750 1600 4750 
z
" transform="scale(0.015625)"/>
       </defs>
       <use xlink:href="#DejaVuSans-30"/>
       <use xlink:href="#DejaVuSans-b0" x="63.623047"/>
      </g>
     </g>
    </g>
    <g id="xtick_2">
     <g id="line2d_2">
      <path d="M 279.5425 293.132812 
L 103.1335 116.723813 
" clip-path="url(#p9c68953ecc)" style="fill: none; stroke: #b0b0b0; stroke-width: 0.8; stroke-linecap: square"/>
     </g>
     <g id="text_2">
      <!-- 45° -->
      <g transform="translate(84.371505 109.583693) scale(0.1 -0.1)">
       <defs>
        <path id="DejaVuSans-34" d="M 2419 4116 
L 825 1625 
L 2419 1625 
L 2419 4116 
z
M 2253 4666 
L 3047 4666 
L 3047 1625 
L 3713 1625 
L 3713 1100 
L 3047 1100 
L 3047 0 
L 2419 0 
L 2419 1100 
L 313 1100 
L 313 1709 
L 2253 4666 
z
" transform="scale(0.015625)"/>
        <path id="DejaVuSans-35" d="M 691 4666 
L 3169 4666 
L 3169 4134 
L 1269 4134 
L 1269 2991 
Q 1406 3038 1543 3061 
Q 1681 3084 1819 3084 
Q 2600 3084 3056 2656 
Q 3513 2228 3513 1497 
Q 3513 744 3044 326 
Q 2575 -91 1722 -91 
Q 1428 -91 1123 -41 
Q 819 9 494 109 
L 494 744 
Q 775 591 1075 516 
Q 1375 441 1709 441 
Q 2250 441 2565 725 
Q 2881 1009 2881 1497 
Q 2881 1984 2565 2268 
Q 2250 2553 1709 2553 
Q 1456 2553 1204 2497 
Q 953 2441 691 2322 
L 691 4666 
z
" transform="scale(0.015625)"/>
       </defs>
       <use xlink:href="#DejaVuSans-34"/>
       <use xlink:href="#DejaVuSans-35" x="63.623047"/>
       <use xlink:href="#DejaVuSans-b0" x="127.246094"/>
      </g>
     </g>
    </g>
    <g id="xtick_3">
     <g id="line2d_3">
      <path d="M 279.5425 293.132812 
L 30.0625 293.132812 
" clip-path="url(#p9c68953ecc)" style="fill: none; stroke: #b0b0b0; stroke-width: 0.8; stroke-linecap: square"/>
     </g>
     <g id="text_3">
      <!-- 90° -->
      <g transform="translate(7.2 295.892187) scale(0.1 -0.1)">
       <defs>
        <path id="DejaVuSans-39" d="M 703 97 
L 703 672 
Q 941 559 1184 500 
Q 1428 441 1663 441 
Q 2288 441 2617 861 
Q 2947 1281 2994 2138 
Q 2813 1869 2534 1725 
Q 2256 1581 1919 1581 
Q 1219 1581 811 2004 
Q 403 2428 403 3163 
Q 403 3881 828 4315 
Q 1253 4750 1959 4750 
Q 2769 4750 3195 4129 
Q 3622 3509 3622 2328 
Q 3622 1225 3098 567 
Q 2575 -91 1691 -91 
Q 1453 -91 1209 -44 
Q 966 3 703 97 
z
M 1959 2075 
Q 2384 2075 2632 2365 
Q 2881 2656 2881 3163 
Q 2881 3666 2632 3958 
Q 2384 4250 1959 4250 
Q 1534 4250 1286 3958 
Q 1038 3666 1038 3163 
Q 1038 2656 1286 2365 
Q 1534 2075 1959 2075 
z
" transform="scale(0.015625)"/>
       </defs>
       <use xlink:href="#DejaVuSans-39"/>
       <use xlink:href="#DejaVuSans-30" x="63.623047"/>
       <use xlink:href="#DejaVuSans-b0" x="127.246094"/>
      </g>
     </g>
    </g>
    <g id="xtick_4">
     <g id="line2d_4">
      <path d="M 279.5425 293.132812 
L 103.1335 469.541812 
" clip-path="url(#p9c68953ecc)" style="fill: none; stroke: #b0b0b0; stroke-width: 0.8; stroke-linecap: square"/>
     </g>
     <g id="text_4">
      <!-- 135° -->
      <g transform="translate(81.190255 482.200682) scale(0.1 -0.1)">
       <defs>
        <path id="DejaVuSans-31" d="M 794 531 
L 1825 531 
L 1825 4091 
L 703 3866 
L 703 4441 
L 1819 4666 
L 2450 4666 
L 2450 531 
L 3481 531 
L 3481 0 
L 794 0 
L 794 531 
z
" transform="scale(0.015625)"/>
        <path id="DejaVuSans-33" d="M 2597 2516 
Q 3050 2419 3304 2112 
Q 3559 1806 3559 1356 
Q 3559 666 3084 287 
Q 2609 -91 1734 -91 
Q 1441 -91 1130 -33 
Q 819 25 488 141 
L 488 750 
Q 750 597 1062 519 
Q 1375 441 1716 441 
Q 2309 441 2620 675 
Q 2931 909 2931 1356 
Q 2931 1769 2642 2001 
Q 2353 2234 1838 2234 
L 1294 2234 
L 1294 2753 
L 1863 2753 
Q 2328 2753 2575 2939 
Q 2822 3125 2822 3475 
Q 2822 3834 2567 4026 
Q 2313 4219 1838 4219 
Q 1578 4219 1281 4162 
Q 984 4106 628 3988 
L 628 4550 
Q 988 4650 1302 4700 
Q 1616 4750 1894 4750 
Q 2613 4750 3031 4423 
Q 3450 4097 3450 3541 
Q 3450 3153 3228 2886 
Q 3006 2619 2597 2516 
z
" transform="scale(0.015625)"/>
       </defs>
       <use xlink:href="#DejaVuSans-31"/>
       <use xlink:href="#DejaVuSans-33" x="63.623047"/>
       <use xlink:href="#DejaVuSans-35" x="127.246094"/>
       <use xlink:href="#DejaVuSans-b0" x="190.869141"/>
      </g>
     </g>
    </g>
    <g id="xtick_5">
     <g id="line2d_5">
      <path d="M 279.5425 293.132812 
L 279.5425 542.612812 
" clip-path="url(#p9c68953ecc)" style="fill: none; stroke: #b0b0b0; stroke-width: 0.8; stroke-linecap: square"/>
     </g>
     <g id="text_5">
      <!-- 180° -->
      <g transform="translate(267.49875 559.372187) scale(0.1 -0.1)">
       <defs>
        <path id="DejaVuSans-38" d="M 2034 2216 
Q 1584 2216 1326 1975 
Q 1069 1734 1069 1313 
Q 1069 891 1326 650 
Q 1584 409 2034 409 
Q 2484 409 2743 651 
Q 3003 894 3003 1313 
Q 3003 1734 2745 1975 
Q 2488 2216 2034 2216 
z
M 1403 2484 
Q 997 2584 770 2862 
Q 544 3141 544 3541 
Q 544 4100 942 4425 
Q 1341 4750 2034 4750 
Q 2731 4750 3128 4425 
Q 3525 4100 3525 3541 
Q 3525 3141 3298 2862 
Q 3072 2584 2669 2484 
Q 3125 2378 3379 2068 
Q 3634 1759 3634 1313 
Q 3634 634 3220 271 
Q 2806 -91 2034 -91 
Q 1263 -91 848 271 
Q 434 634 434 1313 
Q 434 1759 690 2068 
Q 947 2378 1403 2484 
z
M 1172 3481 
Q 1172 3119 1398 2916 
Q 1625 2713 2034 2713 
Q 2441 2713 2670 2916 
Q 2900 3119 2900 3481 
Q 2900 3844 2670 4047 
Q 2441 4250 2034 4250 
Q 1625 4250 1398 4047 
Q 1172 3844 1172 3481 
z
" transform="scale(0.015625)"/>
       </defs>
       <use xlink:href="#DejaVuSans-31"/>
       <use xlink:href="#DejaVuSans-38" x="63.623047"/>
       <use xlink:href="#DejaVuSans-30" x="127.246094"/>
       <use xlink:href="#DejaVuSans-b0" x="190.869141"/>
      </g>
     </g>
    </g>
    <g id="xtick_6">
     <g id="line2d_6">
      <path d="M 279.5425 293.132812 
L 455.9515 469.541812 
" clip-path="url(#p9c68953ecc)" style="fill: none; stroke: #b0b0b0; stroke-width: 0.8; stroke-linecap: square"/>
     </g>
     <g id="text_6">
      <!-- 225° -->
      <g transform="translate(453.807245 482.200682) scale(0.1 -0.1)">
       <defs>
        <path id="DejaVuSans-32" d="M 1228 531 
L 3431 531 
L 3431 0 
L 469 0 
L 469 531 
Q 828 903 1448 1529 
Q 2069 2156 2228 2338 
Q 2531 2678 2651 2914 
Q 2772 3150 2772 3378 
Q 2772 3750 2511 3984 
Q 2250 4219 1831 4219 
Q 1534 4219 1204 4116 
Q 875 4013 500 3803 
L 500 4441 
Q 881 4594 1212 4672 
Q 1544 4750 1819 4750 
Q 2544 4750 2975 4387 
Q 3406 4025 3406 3419 
Q 3406 3131 3298 2873 
Q 3191 2616 2906 2266 
Q 2828 2175 2409 1742 
Q 1991 1309 1228 531 
z
" transform="scale(0.015625)"/>
       </defs>
       <use xlink:href="#DejaVuSans-32"/>
       <use xlink:href="#DejaVuSans-32" x="63.623047"/>
       <use xlink:href="#DejaVuSans-35" x="127.246094"/>
       <use xlink:href="#DejaVuSans-b0" x="190.869141"/>
      </g>
     </g>
    </g>
    <g id="xtick_7">
     <g id="line2d_7">
      <path d="M 279.5425 293.132812 
L 529.0225 293.132812 
" clip-path="url(#p9c68953ecc)" style="fill: none; stroke: #b0b0b0; stroke-width: 0.8; stroke-linecap: square"/>
     </g>
     <g id="text_7">
      <!-- 270° -->
      <g transform="translate(530.97875 295.892187) scale(0.1 -0.1)">
       <defs>
        <path id="DejaVuSans-37" d="M 525 4666 
L 3525 4666 
L 3525 4397 
L 1831 0 
L 1172 0 
L 2766 4134 
L 525 4134 
L 525 4666 
z
" transform="scale(0.015625)"/>
       </defs>
       <use xlink:href="#DejaVuSans-32"/>
       <use xlink:href="#DejaVuSans-37" x="63.623047"/>
       <use xlink:href="#DejaVuSans-30" x="127.246094"/>
       <use xlink:href="#DejaVuSans-b0" x="190.869141"/>
      </g>
     </g>
    </g>
    <g id="xtick_8">
     <g id="line2d_8">
      <path d="M 279.5425 293.132812 
L 455.9515 116.723813 
" clip-path="url(#p9c68953ecc)" style="fill: none; stroke: #b0b0b0; stroke-width: 0.8; stroke-linecap: square"/>
     </g>
     <g id="text_8">
      <!-- 315° -->
      <g transform="translate(453.807245 109.583693) scale(0.1 -0.1)">
       <use xlink:href="#DejaVuSans-33"/>
       <use xlink:href="#DejaVuSans-31" x="63.623047"/>
       <use xlink:href="#DejaVuSans-35" x="127.246094"/>
       <use xlink:href="#DejaVuSans-b0" x="190.869141"/>
      </g>
     </g>
    </g>
   </g>
   <g id="matplotlib.axis_2"/>
   <g id="line2d_9">
    <path d="M 279.5425 421.309176 
L 310.938191 410.303128 
L 329.885227 380.328974 
L 311.859851 325.450164 
L 354.834749 336.602812 
L 409.989905 328.086089 
L 400.846136 293.132812 
L 409.989905 258.179536 
L 426.258226 208.426449 
L 413.914644 158.760668 
L 381.430682 116.657305 
L 335.841289 83.022871 
L 279.5425 75.610994 
L 225.022503 89.661415 
L 177.654318 116.657305 
L 145.170356 158.760668 
L 150.682644 218.73554 
L 162.372185 261.737121 
L 165.111591 293.132812 
L 188.926364 317.413333 
L 269.721772 298.802812 
L 252.084901 320.590412 
L 239.508864 362.473105 
L 253.483187 390.387493 
L 279.5425 428.181903 
" clip-path="url(#p9c68953ecc)" style="fill: none; stroke: #1f77b4; stroke-width: 1.5; stroke-linecap: square"/>
    <defs>
     <path id="m60766d5b6a" d="M 0 3 
C 0.795609 3 1.55874 2.683901 2.12132 2.12132 
C 2.683901 1.55874 3 0.795609 3 0 
C 3 -0.795609 2.683901 -1.55874 2.12132 -2.12132 
C 1.55874 -2.683901 0.795609 -3 0 -3 
C -0.795609 -3 -1.55874 -2.683901 -2.12132 -2.12132 
C -2.683901 -1.55874 -3 -0.795609 -3 0 
C -3 0.795609 -2.683901 1.55874 -2.12132 2.12132 
C -1.55874 2.683901 -0.795609 3 0 3 
z
" style="stroke: #1f77b4"/>
    </defs>
    <g clip-path="url(#p9c68953ecc)">
     <use xlink:href="#m60766d5b6a" x="279.5425" y="421.309176" style="fill: #1f77b4; stroke: #1f77b4"/>
     <use xlink:href="#m60766d5b6a" x="310.938191" y="410.303128" style="fill: #1f77b4; stroke: #1f77b4"/>
     <use xlink:href="#m60766d5b6a" x="329.885227" y="380.328974" style="fill: #1f77b4; stroke: #1f77b4"/>
     <use xlink:href="#m60766d5b6a" x="311.859851" y="325.450164" style="fill: #1f77b4; stroke: #1f77b4"/>
     <use xlink:href="#m60766d5b6a" x="354.834749" y="336.602812" style="fill: #1f77b4; stroke: #1f77b4"/>
     <use xlink:href="#m60766d5b6a" x="409.989905" y="328.086089" style="fill: #1f77b4; stroke: #1f77b4"/>
     <use xlink:href="#m60766d5b6a" x="400.846136" y="293.132812" style="fill: #1f77b4; stroke: #1f77b4"/>
     <use xlink:href="#m60766d5b6a" x="409.989905" y="258.179536" style="fill: #1f77b4; stroke: #1f77b4"/>
     <use xlink:href="#m60766d5b6a" x="426.258226" y="208.426449" style="fill: #1f77b4; stroke: #1f77b4"/>
     <use xlink:href="#m60766d5b6a" x="413.914644" y="158.760668" style="fill: #1f77b4; stroke: #1f77b4"/>
     <use xlink:href="#m60766d5b6a" x="381.430682" y="116.657305" style="fill: #1f77b4; stroke: #1f77b4"/>
     <use xlink:href="#m60766d5b6a" x="335.841289" y="83.022871" style="fill: #1f77b4; stroke: #1f77b4"/>
     <use xlink:href="#m60766d5b6a" x="279.5425" y="75.610994" style="fill: #1f77b4; stroke: #1f77b4"/>
     <use xlink:href="#m60766d5b6a" x="225.022503" y="89.661415" style="fill: #1f77b4; stroke: #1f77b4"/>
     <use xlink:href="#m60766d5b6a" x="177.654318" y="116.657305" style="fill: #1f77b4; stroke: #1f77b4"/>
     <use xlink:href="#m60766d5b6a" x="145.170356" y="158.760668" style="fill: #1f77b4; stroke: #1f77b4"/>
     <use xlink:href="#m60766d5b6a" x="150.682644" y="218.73554" style="fill: #1f77b4; stroke: #1f77b4"/>
     <use xlink:href="#m60766d5b6a" x="162.372185" y="261.737121" style="fill: #1f77b4; stroke: #1f77b4"/>
     <use xlink:href="#m60766d5b6a" x="165.111591" y="293.132812" style="fill: #1f77b4; stroke: #1f77b4"/>
     <use xlink:href="#m60766d5b6a" x="188.926364" y="317.413333" style="fill: #1f77b4; stroke: #1f77b4"/>
     <use xlink:href="#m60766d5b6a" x="269.721772" y="298.802812" style="fill: #1f77b4; stroke: #1f77b4"/>
     <use xlink:href="#m60766d5b6a" x="252.084901" y="320.590412" style="fill: #1f77b4; stroke: #1f77b4"/>
     <use xlink:href="#m60766d5b6a" x="239.508864" y="362.473105" style="fill: #1f77b4; stroke: #1f77b4"/>
     <use xlink:href="#m60766d5b6a" x="253.483187" y="390.387493" style="fill: #1f77b4; stroke: #1f77b4"/>
     <use xlink:href="#m60766d5b6a" x="279.5425" y="428.181903" style="fill: #1f77b4; stroke: #1f77b4"/>
    </g>
   </g>
   <g id="line2d_10">
    <path d="M 279.5425 441.927358 
L 314.495777 423.580217 
L 347.067045 410.088756 
L 365.317124 378.907436 
L 366.738661 343.47554 
L 356.881547 313.855748 
L 338.991591 293.132812 
L 376.797181 267.073499 
L 396.498443 225.608267 
L 409.054892 163.62042 
L 384.867045 110.705348 
L 337.620082 76.384326 
L 279.5425 54.992812 
L 221.464918 76.384326 
L 174.217955 110.705348 
L 145.170356 158.760668 
L 132.826774 208.426449 
L 149.095095 258.179536 
L 158.238864 293.132812 
L 162.372185 324.528504 
L 192.346339 343.47554 
L 213.206884 359.468428 
L 215.454318 404.1368 
L 244.589223 423.580217 
L 279.5425 448.800085 
" clip-path="url(#p9c68953ecc)" style="fill: none; stroke: #ff7f0e; stroke-width: 1.5; stroke-linecap: square"/>
    <defs>
     <path id="mff7a0e4ca3" d="M 0 3 
C 0.795609 3 1.55874 2.683901 2.12132 2.12132 
C 2.683901 1.55874 3 0.795609 3 0 
C 3 -0.795609 2.683901 -1.55874 2.12132 -2.12132 
C 1.55874 -2.683901 0.795609 -3 0 -3 
C -0.795609 -3 -1.55874 -2.683901 -2.12132 -2.12132 
C -2.683901 -1.55874 -3 -0.795609 -3 0 
C -3 0.795609 -2.683901 1.55874 -2.12132 2.12132 
C -1.55874 2.683901 -0.795609 3 0 3 
z
" style="stroke: #ff7f0e"/>
    </defs>
    <g clip-path="url(#p9c68953ecc)">
     <use xlink:href="#mff7a0e4ca3" x="279.5425" y="441.927358" style="fill: #ff7f0e; stroke: #ff7f0e"/>
     <use xlink:href="#mff7a0e4ca3" x="314.495777" y="423.580217" style="fill: #ff7f0e; stroke: #ff7f0e"/>
     <use xlink:href="#mff7a0e4ca3" x="347.067045" y="410.088756" style="fill: #ff7f0e; stroke: #ff7f0e"/>
     <use xlink:href="#mff7a0e4ca3" x="365.317124" y="378.907436" style="fill: #ff7f0e; stroke: #ff7f0e"/>
     <use xlink:href="#mff7a0e4ca3" x="366.738661" y="343.47554" style="fill: #ff7f0e; stroke: #ff7f0e"/>
     <use xlink:href="#mff7a0e4ca3" x="356.881547" y="313.855748" style="fill: #ff7f0e; stroke: #ff7f0e"/>
     <use xlink:href="#mff7a0e4ca3" x="338.991591" y="293.132812" style="fill: #ff7f0e; stroke: #ff7f0e"/>
     <use xlink:href="#mff7a0e4ca3" x="376.797181" y="267.073499" style="fill: #ff7f0e; stroke: #ff7f0e"/>
     <use xlink:href="#mff7a0e4ca3" x="396.498443" y="225.608267" style="fill: #ff7f0e; stroke: #ff7f0e"/>
     <use xlink:href="#mff7a0e4ca3" x="409.054892" y="163.62042" style="fill: #ff7f0e; stroke: #ff7f0e"/>
     <use xlink:href="#mff7a0e4ca3" x="384.867045" y="110.705348" style="fill: #ff7f0e; stroke: #ff7f0e"/>
     <use xlink:href="#mff7a0e4ca3" x="337.620082" y="76.384326" style="fill: #ff7f0e; stroke: #ff7f0e"/>
     <use xlink:href="#mff7a0e4ca3" x="279.5425" y="54.992812" style="fill: #ff7f0e; stroke: #ff7f0e"/>
     <use xlink:href="#mff7a0e4ca3" x="221.464918" y="76.384326" style="fill: #ff7f0e; stroke: #ff7f0e"/>
     <use xlink:href="#mff7a0e4ca3" x="174.217955" y="110.705348" style="fill: #ff7f0e; stroke: #ff7f0e"/>
     <use xlink:href="#mff7a0e4ca3" x="145.170356" y="158.760668" style="fill: #ff7f0e; stroke: #ff7f0e"/>
     <use xlink:href="#mff7a0e4ca3" x="132.826774" y="208.426449" style="fill: #ff7f0e; stroke: #ff7f0e"/>
     <use xlink:href="#mff7a0e4ca3" x="149.095095" y="258.179536" style="fill: #ff7f0e; stroke: #ff7f0e"/>
     <use xlink:href="#mff7a0e4ca3" x="158.238864" y="293.132812" style="fill: #ff7f0e; stroke: #ff7f0e"/>
     <use xlink:href="#mff7a0e4ca3" x="162.372185" y="324.528504" style="fill: #ff7f0e; stroke: #ff7f0e"/>
     <use xlink:href="#mff7a0e4ca3" x="192.346339" y="343.47554" style="fill: #ff7f0e; stroke: #ff7f0e"/>
     <use xlink:href="#mff7a0e4ca3" x="213.206884" y="359.468428" style="fill: #ff7f0e; stroke: #ff7f0e"/>
     <use xlink:href="#mff7a0e4ca3" x="215.454318" y="404.1368" style="fill: #ff7f0e; stroke: #ff7f0e"/>
     <use xlink:href="#mff7a0e4ca3" x="244.589223" y="423.580217" style="fill: #ff7f0e; stroke: #ff7f0e"/>
     <use xlink:href="#mff7a0e4ca3" x="279.5425" y="448.800085" style="fill: #ff7f0e; stroke: #ff7f0e"/>
    </g>
   </g>
   <g id="line2d_11">
    <path d="M 279.5425 393.818267 
L 309.159399 403.664583 
L 329.885227 380.328974 
L 331.298859 344.889172 
L 301.267141 305.67554 
L 343.604457 310.298162 
L 387.100682 293.132812 
L 370.158636 268.852292 
L 331.026923 263.408267 
L 394.475636 178.199676 
L 377.994318 122.609261 
L 335.841289 83.022871 
L 279.5425 68.738267 
L 223.243711 83.022871 
L 174.217955 110.705348 
L 150.030108 163.62042 
L 144.730687 215.299176 
L 175.649274 265.294707 
L 192.6025 293.132812 
L 169.01073 322.749711 
L 186.394382 346.911903 
L 247.225149 325.450164 
L 246.381591 350.569192 
L 251.704394 397.026038 
L 279.5425 421.309176 
" clip-path="url(#p9c68953ecc)" style="fill: none; stroke: #2ca02c; stroke-width: 1.5; stroke-linecap: square"/>
    <defs>
     <path id="m55ee4aa605" d="M 0 3 
C 0.795609 3 1.55874 2.683901 2.12132 2.12132 
C 2.683901 1.55874 3 0.795609 3 0 
C 3 -0.795609 2.683901 -1.55874 2.12132 -2.12132 
C 1.55874 -2.683901 0.795609 -3 0 -3 
C -0.795609 -3 -1.55874 -2.683901 -2.12132 -2.12132 
C -2.683901 -1.55874 -3 -0.795609 -3 0 
C -3 0.795609 -2.683901 1.55874 -2.12132 2.12132 
C -1.55874 2.683901 -0.795609 3 0 3 
z
" style="stroke: #2ca02c"/>
    </defs>
    <g clip-path="url(#p9c68953ecc)">
     <use xlink:href="#m55ee4aa605" x="279.5425" y="393.818267" style="fill: #2ca02c; stroke: #2ca02c"/>
     <use xlink:href="#m55ee4aa605" x="309.159399" y="403.664583" style="fill: #2ca02c; stroke: #2ca02c"/>
     <use xlink:href="#m55ee4aa605" x="329.885227" y="380.328974" style="fill: #2ca02c; stroke: #2ca02c"/>
     <use xlink:href="#m55ee4aa605" x="331.298859" y="344.889172" style="fill: #2ca02c; stroke: #2ca02c"/>
     <use xlink:href="#m55ee4aa605" x="301.267141" y="305.67554" style="fill: #2ca02c; stroke: #2ca02c"/>
     <use xlink:href="#m55ee4aa605" x="343.604457" y="310.298162" style="fill: #2ca02c; stroke: #2ca02c"/>
     <use xlink:href="#m55ee4aa605" x="387.100682" y="293.132812" style="fill: #2ca02c; stroke: #2ca02c"/>
     <use xlink:href="#m55ee4aa605" x="370.158636" y="268.852292" style="fill: #2ca02c; stroke: #2ca02c"/>
     <use xlink:href="#m55ee4aa605" x="331.026923" y="263.408267" style="fill: #2ca02c; stroke: #2ca02c"/>
     <use xlink:href="#m55ee4aa605" x="394.475636" y="178.199676" style="fill: #2ca02c; stroke: #2ca02c"/>
     <use xlink:href="#m55ee4aa605" x="377.994318" y="122.609261" style="fill: #2ca02c; stroke: #2ca02c"/>
     <use xlink:href="#m55ee4aa605" x="335.841289" y="83.022871" style="fill: #2ca02c; stroke: #2ca02c"/>
     <use xlink:href="#m55ee4aa605" x="279.5425" y="68.738267" style="fill: #2ca02c; stroke: #2ca02c"/>
     <use xlink:href="#m55ee4aa605" x="223.243711" y="83.022871" style="fill: #2ca02c; stroke: #2ca02c"/>
     <use xlink:href="#m55ee4aa605" x="174.217955" y="110.705348" style="fill: #2ca02c; stroke: #2ca02c"/>
     <use xlink:href="#m55ee4aa605" x="150.030108" y="163.62042" style="fill: #2ca02c; stroke: #2ca02c"/>
     <use xlink:href="#m55ee4aa605" x="144.730687" y="215.299176" style="fill: #2ca02c; stroke: #2ca02c"/>
     <use xlink:href="#m55ee4aa605" x="175.649274" y="265.294707" style="fill: #2ca02c; stroke: #2ca02c"/>
     <use xlink:href="#m55ee4aa605" x="192.6025" y="293.132812" style="fill: #2ca02c; stroke: #2ca02c"/>
     <use xlink:href="#m55ee4aa605" x="169.01073" y="322.749711" style="fill: #2ca02c; stroke: #2ca02c"/>
     <use xlink:href="#m55ee4aa605" x="186.394382" y="346.911903" style="fill: #2ca02c; stroke: #2ca02c"/>
     <use xlink:href="#m55ee4aa605" x="247.225149" y="325.450164" style="fill: #2ca02c; stroke: #2ca02c"/>
     <use xlink:href="#m55ee4aa605" x="246.381591" y="350.569192" style="fill: #2ca02c; stroke: #2ca02c"/>
     <use xlink:href="#m55ee4aa605" x="251.704394" y="397.026038" style="fill: #2ca02c; stroke: #2ca02c"/>
     <use xlink:href="#m55ee4aa605" x="279.5425" y="421.309176" style="fill: #2ca02c; stroke: #2ca02c"/>
    </g>
   </g>
   <g id="line2d_12">
    <path d="M 279.5425 414.436449 
L 310.938191 410.303128 
L 340.194318 398.184843 
L 365.317124 378.907436 
L 378.642574 350.348267 
L 356.881547 313.855748 
L 338.991591 293.132812 
L 376.797181 267.073499 
L 396.498443 225.608267 
L 404.19514 168.480172 
L 381.430682 116.657305 
L 337.620082 76.384326 
L 279.5425 61.86554 
L 221.464918 76.384326 
L 174.217955 110.705348 
L 145.170356 158.760668 
L 144.730687 215.299176 
L 188.926364 268.852292 
L 178.857045 293.132812 
L 162.372185 324.528504 
L 168.538513 357.220994 
L 198.627628 374.047684 
L 222.327045 392.232887 
L 248.146809 410.303128 
L 279.5425 421.309176 
" clip-path="url(#p9c68953ecc)" style="fill: none; stroke: #d62728; stroke-width: 1.5; stroke-linecap: square"/>
    <defs>
     <path id="m4cdc6a205f" d="M 0 3 
C 0.795609 3 1.55874 2.683901 2.12132 2.12132 
C 2.683901 1.55874 3 0.795609 3 0 
C 3 -0.795609 2.683901 -1.55874 2.12132 -2.12132 
C 1.55874 -2.683901 0.795609 -3 0 -3 
C -0.795609 -3 -1.55874 -2.683901 -2.12132 -2.12132 
C -2.683901 -1.55874 -3 -0.795609 -3 0 
C -3 0.795609 -2.683901 1.55874 -2.12132 2.12132 
C -1.55874 2.683901 -0.795609 3 0 3 
z
" style="stroke: #d62728"/>
    </defs>
    <g clip-path="url(#p9c68953ecc)">
     <use xlink:href="#m4cdc6a205f" x="279.5425" y="414.436449" style="fill: #d62728; stroke: #d62728"/>
     <use xlink:href="#m4cdc6a205f" x="310.938191" y="410.303128" style="fill: #d62728; stroke: #d62728"/>
     <use xlink:href="#m4cdc6a205f" x="340.194318" y="398.184843" style="fill: #d62728; stroke: #d62728"/>
     <use xlink:href="#m4cdc6a205f" x="365.317124" y="378.907436" style="fill: #d62728; stroke: #d62728"/>
     <use xlink:href="#m4cdc6a205f" x="378.642574" y="350.348267" style="fill: #d62728; stroke: #d62728"/>
     <use xlink:href="#m4cdc6a205f" x="356.881547" y="313.855748" style="fill: #d62728; stroke: #d62728"/>
     <use xlink:href="#m4cdc6a205f" x="338.991591" y="293.132812" style="fill: #d62728; stroke: #d62728"/>
     <use xlink:href="#m4cdc6a205f" x="376.797181" y="267.073499" style="fill: #d62728; stroke: #d62728"/>
     <use xlink:href="#m4cdc6a205f" x="396.498443" y="225.608267" style="fill: #d62728; stroke: #d62728"/>
     <use xlink:href="#m4cdc6a205f" x="404.19514" y="168.480172" style="fill: #d62728; stroke: #d62728"/>
     <use xlink:href="#m4cdc6a205f" x="381.430682" y="116.657305" style="fill: #d62728; stroke: #d62728"/>
     <use xlink:href="#m4cdc6a205f" x="337.620082" y="76.384326" style="fill: #d62728; stroke: #d62728"/>
     <use xlink:href="#m4cdc6a205f" x="279.5425" y="61.86554" style="fill: #d62728; stroke: #d62728"/>
     <use xlink:href="#m4cdc6a205f" x="221.464918" y="76.384326" style="fill: #d62728; stroke: #d62728"/>
     <use xlink:href="#m4cdc6a205f" x="174.217955" y="110.705348" style="fill: #d62728; stroke: #d62728"/>
     <use xlink:href="#m4cdc6a205f" x="145.170356" y="158.760668" style="fill: #d62728; stroke: #d62728"/>
     <use xlink:href="#m4cdc6a205f" x="144.730687" y="215.299176" style="fill: #d62728; stroke: #d62728"/>
     <use xlink:href="#m4cdc6a205f" x="188.926364" y="268.852292" style="fill: #d62728; stroke: #d62728"/>
     <use xlink:href="#m4cdc6a205f" x="178.857045" y="293.132812" style="fill: #d62728; stroke: #d62728"/>
     <use xlink:href="#m4cdc6a205f" x="162.372185" y="324.528504" style="fill: #d62728; stroke: #d62728"/>
     <use xlink:href="#m4cdc6a205f" x="168.538513" y="357.220994" style="fill: #d62728; stroke: #d62728"/>
     <use xlink:href="#m4cdc6a205f" x="198.627628" y="374.047684" style="fill: #d62728; stroke: #d62728"/>
     <use xlink:href="#m4cdc6a205f" x="222.327045" y="392.232887" style="fill: #d62728; stroke: #d62728"/>
     <use xlink:href="#m4cdc6a205f" x="248.146809" y="410.303128" style="fill: #d62728; stroke: #d62728"/>
     <use xlink:href="#m4cdc6a205f" x="279.5425" y="421.309176" style="fill: #d62728; stroke: #d62728"/>
    </g>
   </g>
   <g id="patch_3">
    <path d="M 279.5425 43.652812 
C 246.781087 43.652812 214.338237 50.106097 184.070637 62.643347 
C 153.803038 75.180597 126.299318 93.557995 103.1335 116.723813 
C 79.967683 139.88963 61.590284 167.39335 49.053034 197.66095 
C 36.515784 227.928549 30.0625 260.371399 30.0625 293.132812 
C 30.0625 325.894226 36.515784 358.337076 49.053034 388.604675 
C 61.590284 418.872275 79.967683 446.375995 103.1335 469.541812 
C 126.299318 492.70763 153.803038 511.085028 184.070637 523.622278 
C 214.338237 536.159528 246.781087 542.612812 279.5425 542.612812 
C 312.303913 542.612812 344.746763 536.159528 375.014363 523.622278 
C 405.281962 511.085028 432.785682 492.70763 455.9515 469.541812 
C 479.117317 446.375995 497.494716 418.872275 510.031966 388.604675 
C 522.569216 358.337076 529.0225 325.894226 529.0225 293.132812 
C 529.0225 260.371399 522.569216 227.928549 510.031966 197.66095 
C 497.494716 167.39335 479.117317 139.88963 455.9515 116.723813 
C 432.785682 93.557995 405.281962 75.180597 375.014363 62.643347 
C 344.746763 50.106097 312.303913 43.652812 279.5425 43.652812 
" style="fill: none; stroke: #000000; stroke-width: 0.8; stroke-linejoin: miter; stroke-linecap: square"/>
   </g>
   <g id="text_9">
    <!-- Radiation Patterns -->
    <g transform="translate(224.568437 16.318125) scale(0.12 -0.12)">
     <defs>
      <path id="DejaVuSans-52" d="M 2841 2188 
Q 3044 2119 3236 1894 
Q 3428 1669 3622 1275 
L 4263 0 
L 3584 0 
L 2988 1197 
Q 2756 1666 2539 1819 
Q 2322 1972 1947 1972 
L 1259 1972 
L 1259 0 
L 628 0 
L 628 4666 
L 2053 4666 
Q 2853 4666 3247 4331 
Q 3641 3997 3641 3322 
Q 3641 2881 3436 2590 
Q 3231 2300 2841 2188 
z
M 1259 4147 
L 1259 2491 
L 2053 2491 
Q 2509 2491 2742 2702 
Q 2975 2913 2975 3322 
Q 2975 3731 2742 3939 
Q 2509 4147 2053 4147 
L 1259 4147 
z
" transform="scale(0.015625)"/>
      <path id="DejaVuSans-61" d="M 2194 1759 
Q 1497 1759 1228 1600 
Q 959 1441 959 1056 
Q 959 750 1161 570 
Q 1363 391 1709 391 
Q 2188 391 2477 730 
Q 2766 1069 2766 1631 
L 2766 1759 
L 2194 1759 
z
M 3341 1997 
L 3341 0 
L 2766 0 
L 2766 531 
Q 2569 213 2275 61 
Q 1981 -91 1556 -91 
Q 1019 -91 701 211 
Q 384 513 384 1019 
Q 384 1609 779 1909 
Q 1175 2209 1959 2209 
L 2766 2209 
L 2766 2266 
Q 2766 2663 2505 2880 
Q 2244 3097 1772 3097 
Q 1472 3097 1187 3025 
Q 903 2953 641 2809 
L 641 3341 
Q 956 3463 1253 3523 
Q 1550 3584 1831 3584 
Q 2591 3584 2966 3190 
Q 3341 2797 3341 1997 
z
" transform="scale(0.015625)"/>
      <path id="DejaVuSans-64" d="M 2906 2969 
L 2906 4863 
L 3481 4863 
L 3481 0 
L 2906 0 
L 2906 525 
Q 2725 213 2448 61 
Q 2172 -91 1784 -91 
Q 1150 -91 751 415 
Q 353 922 353 1747 
Q 353 2572 751 3078 
Q 1150 3584 1784 3584 
Q 2172 3584 2448 3432 
Q 2725 3281 2906 2969 
z
M 947 1747 
Q 947 1113 1208 752 
Q 1469 391 1925 391 
Q 2381 391 2643 752 
Q 2906 1113 2906 1747 
Q 2906 2381 2643 2742 
Q 2381 3103 1925 3103 
Q 1469 3103 1208 2742 
Q 947 2381 947 1747 
z
" transform="scale(0.015625)"/>
      <path id="DejaVuSans-69" d="M 603 3500 
L 1178 3500 
L 1178 0 
L 603 0 
L 603 3500 
z
M 603 4863 
L 1178 4863 
L 1178 4134 
L 603 4134 
L 603 4863 
z
" transform="scale(0.015625)"/>
      <path id="DejaVuSans-74" d="M 1172 4494 
L 1172 3500 
L 2356 3500 
L 2356 3053 
L 1172 3053 
L 1172 1153 
Q 1172 725 1289 603 
Q 1406 481 1766 481 
L 2356 481 
L 2356 0 
L 1766 0 
Q 1100 0 847 248 
Q 594 497 594 1153 
L 594 3053 
L 172 3053 
L 172 3500 
L 594 3500 
L 594 4494 
L 1172 4494 
z
" transform="scale(0.015625)"/>
      <path id="DejaVuSans-6f" d="M 1959 3097 
Q 1497 3097 1228 2736 
Q 959 2375 959 1747 
Q 959 1119 1226 758 
Q 1494 397 1959 397 
Q 2419 397 2687 759 
Q 2956 1122 2956 1747 
Q 2956 2369 2687 2733 
Q 2419 3097 1959 3097 
z
M 1959 3584 
Q 2709 3584 3137 3096 
Q 3566 2609 3566 1747 
Q 3566 888 3137 398 
Q 2709 -91 1959 -91 
Q 1206 -91 779 398 
Q 353 888 353 1747 
Q 353 2609 779 3096 
Q 1206 3584 1959 3584 
z
" transform="scale(0.015625)"/>
      <path id="DejaVuSans-6e" d="M 3513 2113 
L 3513 0 
L 2938 0 
L 2938 2094 
Q 2938 2591 2744 2837 
Q 2550 3084 2163 3084 
Q 1697 3084 1428 2787 
Q 1159 2491 1159 1978 
L 1159 0 
L 581 0 
L 581 3500 
L 1159 3500 
L 1159 2956 
Q 1366 3272 1645 3428 
Q 1925 3584 2291 3584 
Q 2894 3584 3203 3211 
Q 3513 2838 3513 2113 
z
" transform="scale(0.015625)"/>
      <path id="DejaVuSans-20" transform="scale(0.015625)"/>
      <path id="DejaVuSans-50" d="M 1259 4147 
L 1259 2394 
L 2053 2394 
Q 2494 2394 2734 2622 
Q 2975 2850 2975 3272 
Q 2975 3691 2734 3919 
Q 2494 4147 2053 4147 
L 1259 4147 
z
M 628 4666 
L 2053 4666 
Q 2838 4666 3239 4311 
Q 3641 3956 3641 3272 
Q 3641 2581 3239 2228 
Q 2838 1875 2053 1875 
L 1259 1875 
L 1259 0 
L 628 0 
L 628 4666 
z
" transform="scale(0.015625)"/>
      <path id="DejaVuSans-65" d="M 3597 1894 
L 3597 1613 
L 953 1613 
Q 991 1019 1311 708 
Q 1631 397 2203 397 
Q 2534 397 2845 478 
Q 3156 559 3463 722 
L 3463 178 
Q 3153 47 2828 -22 
Q 2503 -91 2169 -91 
Q 1331 -91 842 396 
Q 353 884 353 1716 
Q 353 2575 817 3079 
Q 1281 3584 2069 3584 
Q 2775 3584 3186 3129 
Q 3597 2675 3597 1894 
z
M 3022 2063 
Q 3016 2534 2758 2815 
Q 2500 3097 2075 3097 
Q 1594 3097 1305 2825 
Q 1016 2553 972 2059 
L 3022 2063 
z
" transform="scale(0.015625)"/>
      <path id="DejaVuSans-72" d="M 2631 2963 
Q 2534 3019 2420 3045 
Q 2306 3072 2169 3072 
Q 1681 3072 1420 2755 
Q 1159 2438 1159 1844 
L 1159 0 
L 581 0 
L 581 3500 
L 1159 3500 
L 1159 2956 
Q 1341 3275 1631 3429 
Q 1922 3584 2338 3584 
Q 2397 3584 2469 3576 
Q 2541 3569 2628 3553 
L 2631 2963 
z
" transform="scale(0.015625)"/>
      <path id="DejaVuSans-73" d="M 2834 3397 
L 2834 2853 
Q 2591 2978 2328 3040 
Q 2066 3103 1784 3103 
Q 1356 3103 1142 2972 
Q 928 2841 928 2578 
Q 928 2378 1081 2264 
Q 1234 2150 1697 2047 
L 1894 2003 
Q 2506 1872 2764 1633 
Q 3022 1394 3022 966 
Q 3022 478 2636 193 
Q 2250 -91 1575 -91 
Q 1294 -91 989 -36 
Q 684 19 347 128 
L 347 722 
Q 666 556 975 473 
Q 1284 391 1588 391 
Q 1994 391 2212 530 
Q 2431 669 2431 922 
Q 2431 1156 2273 1281 
Q 2116 1406 1581 1522 
L 1381 1569 
Q 847 1681 609 1914 
Q 372 2147 372 2553 
Q 372 3047 722 3315 
Q 1072 3584 1716 3584 
Q 2034 3584 2315 3537 
Q 2597 3491 2834 3397 
z
" transform="scale(0.015625)"/>
     </defs>
     <use xlink:href="#DejaVuSans-52"/>
     <use xlink:href="#DejaVuSans-61" x="67.232422"/>
     <use xlink:href="#DejaVuSans-64" x="128.511719"/>
     <use xlink:href="#DejaVuSans-69" x="191.988281"/>
     <use xlink:href="#DejaVuSans-61" x="219.771484"/>
     <use xlink:href="#DejaVuSans-74" x="281.050781"/>
     <use xlink:href="#DejaVuSans-69" x="320.259766"/>
     <use xlink:href="#DejaVuSans-6f" x="348.042969"/>
     <use xlink:href="#DejaVuSans-6e" x="409.224609"/>
     <use xlink:href="#DejaVuSans-20" x="472.603516"/>
     <use xlink:href="#DejaVuSans-50" x="504.390625"/>
     <use xlink:href="#DejaVuSans-61" x="560.193359"/>
     <use xlink:href="#DejaVuSans-74" x="621.472656"/>
     <use xlink:href="#DejaVuSans-74" x="660.681641"/>
     <use xlink:href="#DejaVuSans-65" x="699.890625"/>
     <use xlink:href="#DejaVuSans-72" x="761.414062"/>
     <use xlink:href="#DejaVuSans-6e" x="800.777344"/>
     <use xlink:href="#DejaVuSans-73" x="864.15625"/>
    </g>
   </g>
   <g id="legend_1">
    <g id="patch_4">
     <path d="M 37.0625 110.365312 
L 128.482812 110.365312 
Q 130.482812 110.365312 130.482812 108.365312 
L 130.482812 50.652812 
Q 130.482812 48.652812 128.482812 48.652812 
L 37.0625 48.652812 
Q 35.0625 48.652812 35.0625 50.652812 
L 35.0625 108.365312 
Q 35.0625 110.365312 37.0625 110.365312 
z
" style="fill: #ffffff; opacity: 0.8; stroke: #cccccc; stroke-linejoin: miter"/>
    </g>
    <g id="line2d_13">
     <path d="M 39.0625 56.75125 
L 49.0625 56.75125 
L 59.0625 56.75125 
" style="fill: none; stroke: #1f77b4; stroke-width: 1.5; stroke-linecap: square"/>
     <g>
      <use xlink:href="#m60766d5b6a" x="49.0625" y="56.75125" style="fill: #1f77b4; stroke: #1f77b4"/>
     </g>
    </g>
    <g id="text_10">
     <!-- Cantenna -->
     <g transform="translate(67.0625 60.25125) scale(0.1 -0.1)">
      <defs>
       <path id="DejaVuSans-43" d="M 4122 4306 
L 4122 3641 
Q 3803 3938 3442 4084 
Q 3081 4231 2675 4231 
Q 1875 4231 1450 3742 
Q 1025 3253 1025 2328 
Q 1025 1406 1450 917 
Q 1875 428 2675 428 
Q 3081 428 3442 575 
Q 3803 722 4122 1019 
L 4122 359 
Q 3791 134 3420 21 
Q 3050 -91 2638 -91 
Q 1578 -91 968 557 
Q 359 1206 359 2328 
Q 359 3453 968 4101 
Q 1578 4750 2638 4750 
Q 3056 4750 3426 4639 
Q 3797 4528 4122 4306 
z
" transform="scale(0.015625)"/>
      </defs>
      <use xlink:href="#DejaVuSans-43"/>
      <use xlink:href="#DejaVuSans-61" x="69.824219"/>
      <use xlink:href="#DejaVuSans-6e" x="131.103516"/>
      <use xlink:href="#DejaVuSans-74" x="194.482422"/>
      <use xlink:href="#DejaVuSans-65" x="233.691406"/>
      <use xlink:href="#DejaVuSans-6e" x="295.214844"/>
      <use xlink:href="#DejaVuSans-6e" x="358.59375"/>
      <use xlink:href="#DejaVuSans-61" x="421.972656"/>
     </g>
    </g>
    <g id="line2d_14">
     <path d="M 39.0625 71.429375 
L 49.0625 71.429375 
L 59.0625 71.429375 
" style="fill: none; stroke: #ff7f0e; stroke-width: 1.5; stroke-linecap: square"/>
     <g>
      <use xlink:href="#mff7a0e4ca3" x="49.0625" y="71.429375" style="fill: #ff7f0e; stroke: #ff7f0e"/>
     </g>
    </g>
    <g id="text_11">
     <!-- Draht Yagi -->
     <g transform="translate(67.0625 74.929375) scale(0.1 -0.1)">
      <defs>
       <path id="DejaVuSans-44" d="M 1259 4147 
L 1259 519 
L 2022 519 
Q 2988 519 3436 956 
Q 3884 1394 3884 2338 
Q 3884 3275 3436 3711 
Q 2988 4147 2022 4147 
L 1259 4147 
z
M 628 4666 
L 1925 4666 
Q 3281 4666 3915 4102 
Q 4550 3538 4550 2338 
Q 4550 1131 3912 565 
Q 3275 0 1925 0 
L 628 0 
L 628 4666 
z
" transform="scale(0.015625)"/>
       <path id="DejaVuSans-68" d="M 3513 2113 
L 3513 0 
L 2938 0 
L 2938 2094 
Q 2938 2591 2744 2837 
Q 2550 3084 2163 3084 
Q 1697 3084 1428 2787 
Q 1159 2491 1159 1978 
L 1159 0 
L 581 0 
L 581 4863 
L 1159 4863 
L 1159 2956 
Q 1366 3272 1645 3428 
Q 1925 3584 2291 3584 
Q 2894 3584 3203 3211 
Q 3513 2838 3513 2113 
z
" transform="scale(0.015625)"/>
       <path id="DejaVuSans-59" d="M -13 4666 
L 666 4666 
L 1959 2747 
L 3244 4666 
L 3922 4666 
L 2272 2222 
L 2272 0 
L 1638 0 
L 1638 2222 
L -13 4666 
z
" transform="scale(0.015625)"/>
       <path id="DejaVuSans-67" d="M 2906 1791 
Q 2906 2416 2648 2759 
Q 2391 3103 1925 3103 
Q 1463 3103 1205 2759 
Q 947 2416 947 1791 
Q 947 1169 1205 825 
Q 1463 481 1925 481 
Q 2391 481 2648 825 
Q 2906 1169 2906 1791 
z
M 3481 434 
Q 3481 -459 3084 -895 
Q 2688 -1331 1869 -1331 
Q 1566 -1331 1297 -1286 
Q 1028 -1241 775 -1147 
L 775 -588 
Q 1028 -725 1275 -790 
Q 1522 -856 1778 -856 
Q 2344 -856 2625 -561 
Q 2906 -266 2906 331 
L 2906 616 
Q 2728 306 2450 153 
Q 2172 0 1784 0 
Q 1141 0 747 490 
Q 353 981 353 1791 
Q 353 2603 747 3093 
Q 1141 3584 1784 3584 
Q 2172 3584 2450 3431 
Q 2728 3278 2906 2969 
L 2906 3500 
L 3481 3500 
L 3481 434 
z
" transform="scale(0.015625)"/>
      </defs>
      <use xlink:href="#DejaVuSans-44"/>
      <use xlink:href="#DejaVuSans-72" x="77.001953"/>
      <use xlink:href="#DejaVuSans-61" x="118.115234"/>
      <use xlink:href="#DejaVuSans-68" x="179.394531"/>
      <use xlink:href="#DejaVuSans-74" x="242.773438"/>
      <use xlink:href="#DejaVuSans-20" x="281.982422"/>
      <use xlink:href="#DejaVuSans-59" x="313.769531"/>
      <use xlink:href="#DejaVuSans-61" x="361.103516"/>
      <use xlink:href="#DejaVuSans-67" x="422.382812"/>
      <use xlink:href="#DejaVuSans-69" x="485.859375"/>
     </g>
    </g>
    <g id="line2d_15">
     <path d="M 39.0625 86.1075 
L 49.0625 86.1075 
L 59.0625 86.1075 
" style="fill: none; stroke: #2ca02c; stroke-width: 1.5; stroke-linecap: square"/>
     <g>
      <use xlink:href="#m55ee4aa605" x="49.0625" y="86.1075" style="fill: #2ca02c; stroke: #2ca02c"/>
     </g>
    </g>
    <g id="text_12">
     <!-- PCB Yagi V1 -->
     <g transform="translate(67.0625 89.6075) scale(0.1 -0.1)">
      <defs>
       <path id="DejaVuSans-42" d="M 1259 2228 
L 1259 519 
L 2272 519 
Q 2781 519 3026 730 
Q 3272 941 3272 1375 
Q 3272 1813 3026 2020 
Q 2781 2228 2272 2228 
L 1259 2228 
z
M 1259 4147 
L 1259 2741 
L 2194 2741 
Q 2656 2741 2882 2914 
Q 3109 3088 3109 3444 
Q 3109 3797 2882 3972 
Q 2656 4147 2194 4147 
L 1259 4147 
z
M 628 4666 
L 2241 4666 
Q 2963 4666 3353 4366 
Q 3744 4066 3744 3513 
Q 3744 3084 3544 2831 
Q 3344 2578 2956 2516 
Q 3422 2416 3680 2098 
Q 3938 1781 3938 1306 
Q 3938 681 3513 340 
Q 3088 0 2303 0 
L 628 0 
L 628 4666 
z
" transform="scale(0.015625)"/>
       <path id="DejaVuSans-56" d="M 1831 0 
L 50 4666 
L 709 4666 
L 2188 738 
L 3669 4666 
L 4325 4666 
L 2547 0 
L 1831 0 
z
" transform="scale(0.015625)"/>
      </defs>
      <use xlink:href="#DejaVuSans-50"/>
      <use xlink:href="#DejaVuSans-43" x="60.302734"/>
      <use xlink:href="#DejaVuSans-42" x="130.126953"/>
      <use xlink:href="#DejaVuSans-20" x="198.730469"/>
      <use xlink:href="#DejaVuSans-59" x="230.517578"/>
      <use xlink:href="#DejaVuSans-61" x="277.851562"/>
      <use xlink:href="#DejaVuSans-67" x="339.130859"/>
      <use xlink:href="#DejaVuSans-69" x="402.607422"/>
      <use xlink:href="#DejaVuSans-20" x="430.390625"/>
      <use xlink:href="#DejaVuSans-56" x="462.177734"/>
      <use xlink:href="#DejaVuSans-31" x="530.585938"/>
     </g>
    </g>
    <g id="line2d_16">
     <path d="M 39.0625 100.785625 
L 49.0625 100.785625 
L 59.0625 100.785625 
" style="fill: none; stroke: #d62728; stroke-width: 1.5; stroke-linecap: square"/>
     <g>
      <use xlink:href="#m4cdc6a205f" x="49.0625" y="100.785625" style="fill: #d62728; stroke: #d62728"/>
     </g>
    </g>
    <g id="text_13">
     <!-- PCB Yagi V2 -->
     <g transform="translate(67.0625 104.285625) scale(0.1 -0.1)">
      <use xlink:href="#DejaVuSans-50"/>
      <use xlink:href="#DejaVuSans-43" x="60.302734"/>
      <use xlink:href="#DejaVuSans-42" x="130.126953"/>
      <use xlink:href="#DejaVuSans-20" x="198.730469"/>
      <use xlink:href="#DejaVuSans-59" x="230.517578"/>
      <use xlink:href="#DejaVuSans-61" x="277.851562"/>
      <use xlink:href="#DejaVuSans-67" x="339.130859"/>
      <use xlink:href="#DejaVuSans-69" x="402.607422"/>
      <use xlink:href="#DejaVuSans-20" x="430.390625"/>
      <use xlink:href="#DejaVuSans-56" x="462.177734"/>
      <use xlink:href="#DejaVuSans-32" x="530.585938"/>
     </g>
    </g>
   </g>
  </g>
 </g>
 <defs>
  <clipPath id="p9c68953ecc">
   <path d="M 529.0225 293.132812 
C 529.0225 260.371399 522.569216 227.928549 510.031966 197.66095 
C 497.494716 167.39335 479.117317 139.88963 455.9515 116.723813 
C 432.785682 93.557995 405.281962 75.180597 375.014363 62.643347 
C 344.746763 50.106097 312.303913 43.652812 279.5425 43.652812 
C 246.781087 43.652812 214.338237 50.106097 184.070637 62.643347 
C 153.803038 75.180597 126.299318 93.557995 103.1335 116.723813 
C 79.967683 139.88963 61.590284 167.39335 49.053034 197.66095 
C 36.515784 227.928549 30.0625 260.371399 30.0625 293.132812 
C 30.0625 325.894226 36.515784 358.337076 49.053034 388.604675 
C 61.590284 418.872275 79.967683 446.375995 103.1335 469.541812 
C 126.299318 492.70763 153.803038 511.085028 184.070637 523.622278 
C 214.338237 536.159528 246.781087 542.612812 279.5425 542.612812 
C 312.303913 542.612812 344.746763 536.159528 375.014363 523.622278 
C 405.281962 511.085028 432.785682 492.70763 455.9515 469.541812 
C 479.117317 446.375995 497.494716 418.872275 510.031966 388.604675 
C 522.569216 358.337076 529.0225 325.894226 529.0225 293.132812 
M 279.5425 293.132812 
C 279.5425 293.132812 279.5425 293.132812 279.5425 293.132812 
C 279.5425 293.132812 279.5425 293.132812 279.5425 293.132812 
C 279.5425 293.132812 279.5425 293.132812 279.5425 293.132812 
C 279.5425 293.132812 279.5425 293.132812 279.5425 293.132812 
C 279.5425 293.132812 279.5425 293.132812 279.5425 293.132812 
C 279.5425 293.132812 279.5425 293.132812 279.5425 293.132812 
C 279.5425 293.132812 279.5425 293.132812 279.5425 293.132812 
C 279.5425 293.132812 279.5425 293.132812 279.5425 293.132812 
C 279.5425 293.132812 279.5425 293.132812 279.5425 293.132812 
C 279.5425 293.132812 279.5425 293.132812 279.5425 293.132812 
C 279.5425 293.132812 279.5425 293.132812 279.5425 293.132812 
C 279.5425 293.132812 279.5425 293.132812 279.5425 293.132812 
C 279.5425 293.132812 279.5425 293.132812 279.5425 293.132812 
C 279.5425 293.132812 279.5425 293.132812 279.5425 293.132812 
C 279.5425 293.132812 279.5425 293.132812 279.5425 293.132812 
C 279.5425 293.132812 279.5425 293.132812 279.5425 293.132812 
z
"/>
  </clipPath>
 </defs>
</svg>
