<?xml version="1.0" encoding="utf-8" standalone="no"?>
<!DOCTYPE svg PUBLIC "-//W3C//DTD SVG 1.1//EN"
  "http://www.w3.org/Graphics/SVG/1.1/DTD/svg11.dtd">
<svg xmlns:xlink="http://www.w3.org/1999/xlink" width="360pt" height="360pt" viewBox="0 0 360 360" xmlns="http://www.w3.org/2000/svg" version="1.1">
 <metadata>
  <rdf:RDF xmlns:dc="http://purl.org/dc/elements/1.1/" xmlns:cc="http://creativecommons.org/ns#" xmlns:rdf="http://www.w3.org/1999/02/22-rdf-syntax-ns#">
   <cc:Work>
    <dc:type rdf:resource="http://purl.org/dc/dcmitype/StillImage"/>
    <dc:date>2023-11-26T13:04:48.234246</dc:date>
    <dc:format>image/svg+xml</dc:format>
    <dc:creator>
     <cc:Agent>
      <dc:title>Matplotlib v3.8.1, https://matplotlib.org/</dc:title>
     </cc:Agent>
    </dc:creator>
   </cc:Work>
  </rdf:RDF>
 </metadata>
 <defs>
  <style type="text/css">*{stroke-linejoin: round; stroke-linecap: butt}</style>
 </defs>
 <g id="figure_1">
  <g id="patch_1">
   <path d="M 0 360 
L 360 360 
L 360 0 
L 0 0 
z
" style="fill: #ffffff"/>
  </g>
  <g id="axes_1">
   <g id="patch_2">
    <path d="M 323.1 181.8 
C 323.1 163.599215 319.514842 145.575409 312.549703 128.760076 
C 305.584564 111.944743 295.374899 96.664899 282.505 83.795 
C 269.635101 70.925101 254.355257 60.715436 237.539924 53.750297 
C 220.724591 46.785158 202.700785 43.2 184.5 43.2 
C 166.299215 43.2 148.275409 46.785158 131.460076 53.750297 
C 114.644743 60.715436 99.364899 70.925101 86.495 83.795 
C 73.625101 96.664899 63.415436 111.944743 56.450297 128.760076 
C 49.485158 145.575409 45.9 163.599215 45.9 181.8 
C 45.9 200.000785 49.485158 218.024591 56.450297 234.839924 
C 63.415436 251.655257 73.625101 266.935101 86.495 279.805 
C 99.364899 292.674899 114.644743 302.884564 131.460076 309.849703 
C 148.275409 316.814842 166.299215 320.4 184.5 320.4 
C 202.700785 320.4 220.724591 316.814842 237.539924 309.849703 
C 254.355257 302.884564 269.635101 292.674899 282.505 279.805 
C 295.374899 266.935101 305.584564 251.655257 312.549703 234.839924 
C 319.514842 218.024591 323.1 200.000785 323.1 181.8 
M 184.5 181.8 
C 184.5 181.8 184.5 181.8 184.5 181.8 
C 184.5 181.8 184.5 181.8 184.5 181.8 
C 184.5 181.8 184.5 181.8 184.5 181.8 
C 184.5 181.8 184.5 181.8 184.5 181.8 
C 184.5 181.8 184.5 181.8 184.5 181.8 
C 184.5 181.8 184.5 181.8 184.5 181.8 
C 184.5 181.8 184.5 181.8 184.5 181.8 
C 184.5 181.8 184.5 181.8 184.5 181.8 
C 184.5 181.8 184.5 181.8 184.5 181.8 
C 184.5 181.8 184.5 181.8 184.5 181.8 
C 184.5 181.8 184.5 181.8 184.5 181.8 
C 184.5 181.8 184.5 181.8 184.5 181.8 
C 184.5 181.8 184.5 181.8 184.5 181.8 
C 184.5 181.8 184.5 181.8 184.5 181.8 
C 184.5 181.8 184.5 181.8 184.5 181.8 
C 184.5 181.8 184.5 181.8 184.5 181.8 
z
" style="fill: #ffffff"/>
   </g>
   <g id="matplotlib.axis_1">
    <g id="xtick_1">
     <g id="line2d_1">
      <path d="M 184.5 181.8 
L 184.5 43.2 
" clip-path="url(#p042f1dd3a0)" style="fill: none; stroke: #b0b0b0; stroke-width: 0.8; stroke-linecap: square"/>
     </g>
     <g id="text_1">
      <!-- 0° -->
      <g transform="translate(178.81875 31.959375) scale(0.1 -0.1)">
       <defs>
        <path id="DejaVuSans-30" d="M 2034 4250 
Q 1547 4250 1301 3770 
Q 1056 3291 1056 2328 
Q 1056 1369 1301 889 
Q 1547 409 2034 409 
Q 2525 409 2770 889 
Q 3016 1369 3016 2328 
Q 3016 3291 2770 3770 
Q 2525 4250 2034 4250 
z
M 2034 4750 
Q 2819 4750 3233 4129 
Q 3647 3509 3647 2328 
Q 3647 1150 3233 529 
Q 2819 -91 2034 -91 
Q 1250 -91 836 529 
Q 422 1150 422 2328 
Q 422 3509 836 4129 
Q 1250 4750 2034 4750 
z
" transform="scale(0.015625)"/>
        <path id="DejaVuSans-b0" d="M 1600 4347 
Q 1350 4347 1178 4173 
Q 1006 4000 1006 3750 
Q 1006 3503 1178 3333 
Q 1350 3163 1600 3163 
Q 1850 3163 2022 3333 
Q 2194 3503 2194 3750 
Q 2194 3997 2020 4172 
Q 1847 4347 1600 4347 
z
M 1600 4750 
Q 1800 4750 1984 4673 
Q 2169 4597 2303 4453 
Q 2447 4313 2519 4134 
Q 2591 3956 2591 3750 
Q 2591 3338 2302 3052 
Q 2013 2766 1594 2766 
Q 1172 2766 890 3047 
Q 609 3328 609 3750 
Q 609 4169 896 4459 
Q 1184 4750 1600 4750 
z
" transform="scale(0.015625)"/>
       </defs>
       <use xlink:href="#DejaVuSans-30"/>
       <use xlink:href="#DejaVuSans-b0" x="63.623047"/>
      </g>
     </g>
    </g>
    <g id="xtick_2">
     <g id="line2d_2">
      <path d="M 184.5 181.8 
L 86.495 83.795 
" clip-path="url(#p042f1dd3a0)" style="fill: none; stroke: #b0b0b0; stroke-width: 0.8; stroke-linecap: square"/>
     </g>
     <g id="text_2">
      <!-- 45° -->
      <g transform="translate(67.733005 76.65488) scale(0.1 -0.1)">
       <defs>
        <path id="DejaVuSans-34" d="M 2419 4116 
L 825 1625 
L 2419 1625 
L 2419 4116 
z
M 2253 4666 
L 3047 4666 
L 3047 1625 
L 3713 1625 
L 3713 1100 
L 3047 1100 
L 3047 0 
L 2419 0 
L 2419 1100 
L 313 1100 
L 313 1709 
L 2253 4666 
z
" transform="scale(0.015625)"/>
        <path id="DejaVuSans-35" d="M 691 4666 
L 3169 4666 
L 3169 4134 
L 1269 4134 
L 1269 2991 
Q 1406 3038 1543 3061 
Q 1681 3084 1819 3084 
Q 2600 3084 3056 2656 
Q 3513 2228 3513 1497 
Q 3513 744 3044 326 
Q 2575 -91 1722 -91 
Q 1428 -91 1123 -41 
Q 819 9 494 109 
L 494 744 
Q 775 591 1075 516 
Q 1375 441 1709 441 
Q 2250 441 2565 725 
Q 2881 1009 2881 1497 
Q 2881 1984 2565 2268 
Q 2250 2553 1709 2553 
Q 1456 2553 1204 2497 
Q 953 2441 691 2322 
L 691 4666 
z
" transform="scale(0.015625)"/>
       </defs>
       <use xlink:href="#DejaVuSans-34"/>
       <use xlink:href="#DejaVuSans-35" x="63.623047"/>
       <use xlink:href="#DejaVuSans-b0" x="127.246094"/>
      </g>
     </g>
    </g>
    <g id="xtick_3">
     <g id="line2d_3">
      <path d="M 184.5 181.8 
L 45.9 181.8 
" clip-path="url(#p042f1dd3a0)" style="fill: none; stroke: #b0b0b0; stroke-width: 0.8; stroke-linecap: square"/>
     </g>
     <g id="text_3">
      <!-- 90° -->
      <g transform="translate(23.0375 184.559375) scale(0.1 -0.1)">
       <defs>
        <path id="DejaVuSans-39" d="M 703 97 
L 703 672 
Q 941 559 1184 500 
Q 1428 441 1663 441 
Q 2288 441 2617 861 
Q 2947 1281 2994 2138 
Q 2813 1869 2534 1725 
Q 2256 1581 1919 1581 
Q 1219 1581 811 2004 
Q 403 2428 403 3163 
Q 403 3881 828 4315 
Q 1253 4750 1959 4750 
Q 2769 4750 3195 4129 
Q 3622 3509 3622 2328 
Q 3622 1225 3098 567 
Q 2575 -91 1691 -91 
Q 1453 -91 1209 -44 
Q 966 3 703 97 
z
M 1959 2075 
Q 2384 2075 2632 2365 
Q 2881 2656 2881 3163 
Q 2881 3666 2632 3958 
Q 2384 4250 1959 4250 
Q 1534 4250 1286 3958 
Q 1038 3666 1038 3163 
Q 1038 2656 1286 2365 
Q 1534 2075 1959 2075 
z
" transform="scale(0.015625)"/>
       </defs>
       <use xlink:href="#DejaVuSans-39"/>
       <use xlink:href="#DejaVuSans-30" x="63.623047"/>
       <use xlink:href="#DejaVuSans-b0" x="127.246094"/>
      </g>
     </g>
    </g>
    <g id="xtick_4">
     <g id="line2d_4">
      <path d="M 184.5 181.8 
L 86.495 279.805 
" clip-path="url(#p042f1dd3a0)" style="fill: none; stroke: #b0b0b0; stroke-width: 0.8; stroke-linecap: square"/>
     </g>
     <g id="text_4">
      <!-- 135° -->
      <g transform="translate(64.551755 292.46387) scale(0.1 -0.1)">
       <defs>
        <path id="DejaVuSans-31" d="M 794 531 
L 1825 531 
L 1825 4091 
L 703 3866 
L 703 4441 
L 1819 4666 
L 2450 4666 
L 2450 531 
L 3481 531 
L 3481 0 
L 794 0 
L 794 531 
z
" transform="scale(0.015625)"/>
        <path id="DejaVuSans-33" d="M 2597 2516 
Q 3050 2419 3304 2112 
Q 3559 1806 3559 1356 
Q 3559 666 3084 287 
Q 2609 -91 1734 -91 
Q 1441 -91 1130 -33 
Q 819 25 488 141 
L 488 750 
Q 750 597 1062 519 
Q 1375 441 1716 441 
Q 2309 441 2620 675 
Q 2931 909 2931 1356 
Q 2931 1769 2642 2001 
Q 2353 2234 1838 2234 
L 1294 2234 
L 1294 2753 
L 1863 2753 
Q 2328 2753 2575 2939 
Q 2822 3125 2822 3475 
Q 2822 3834 2567 4026 
Q 2313 4219 1838 4219 
Q 1578 4219 1281 4162 
Q 984 4106 628 3988 
L 628 4550 
Q 988 4650 1302 4700 
Q 1616 4750 1894 4750 
Q 2613 4750 3031 4423 
Q 3450 4097 3450 3541 
Q 3450 3153 3228 2886 
Q 3006 2619 2597 2516 
z
" transform="scale(0.015625)"/>
       </defs>
       <use xlink:href="#DejaVuSans-31"/>
       <use xlink:href="#DejaVuSans-33" x="63.623047"/>
       <use xlink:href="#DejaVuSans-35" x="127.246094"/>
       <use xlink:href="#DejaVuSans-b0" x="190.869141"/>
      </g>
     </g>
    </g>
    <g id="xtick_5">
     <g id="line2d_5">
      <path d="M 184.5 181.8 
L 184.5 320.4 
" clip-path="url(#p042f1dd3a0)" style="fill: none; stroke: #b0b0b0; stroke-width: 0.8; stroke-linecap: square"/>
     </g>
     <g id="text_5">
      <!-- 180° -->
      <g transform="translate(172.45625 337.159375) scale(0.1 -0.1)">
       <defs>
        <path id="DejaVuSans-38" d="M 2034 2216 
Q 1584 2216 1326 1975 
Q 1069 1734 1069 1313 
Q 1069 891 1326 650 
Q 1584 409 2034 409 
Q 2484 409 2743 651 
Q 3003 894 3003 1313 
Q 3003 1734 2745 1975 
Q 2488 2216 2034 2216 
z
M 1403 2484 
Q 997 2584 770 2862 
Q 544 3141 544 3541 
Q 544 4100 942 4425 
Q 1341 4750 2034 4750 
Q 2731 4750 3128 4425 
Q 3525 4100 3525 3541 
Q 3525 3141 3298 2862 
Q 3072 2584 2669 2484 
Q 3125 2378 3379 2068 
Q 3634 1759 3634 1313 
Q 3634 634 3220 271 
Q 2806 -91 2034 -91 
Q 1263 -91 848 271 
Q 434 634 434 1313 
Q 434 1759 690 2068 
Q 947 2378 1403 2484 
z
M 1172 3481 
Q 1172 3119 1398 2916 
Q 1625 2713 2034 2713 
Q 2441 2713 2670 2916 
Q 2900 3119 2900 3481 
Q 2900 3844 2670 4047 
Q 2441 4250 2034 4250 
Q 1625 4250 1398 4047 
Q 1172 3844 1172 3481 
z
" transform="scale(0.015625)"/>
       </defs>
       <use xlink:href="#DejaVuSans-31"/>
       <use xlink:href="#DejaVuSans-38" x="63.623047"/>
       <use xlink:href="#DejaVuSans-30" x="127.246094"/>
       <use xlink:href="#DejaVuSans-b0" x="190.869141"/>
      </g>
     </g>
    </g>
    <g id="xtick_6">
     <g id="line2d_6">
      <path d="M 184.5 181.8 
L 282.505 279.805 
" clip-path="url(#p042f1dd3a0)" style="fill: none; stroke: #b0b0b0; stroke-width: 0.8; stroke-linecap: square"/>
     </g>
     <g id="text_6">
      <!-- 225° -->
      <g transform="translate(280.360745 292.46387) scale(0.1 -0.1)">
       <defs>
        <path id="DejaVuSans-32" d="M 1228 531 
L 3431 531 
L 3431 0 
L 469 0 
L 469 531 
Q 828 903 1448 1529 
Q 2069 2156 2228 2338 
Q 2531 2678 2651 2914 
Q 2772 3150 2772 3378 
Q 2772 3750 2511 3984 
Q 2250 4219 1831 4219 
Q 1534 4219 1204 4116 
Q 875 4013 500 3803 
L 500 4441 
Q 881 4594 1212 4672 
Q 1544 4750 1819 4750 
Q 2544 4750 2975 4387 
Q 3406 4025 3406 3419 
Q 3406 3131 3298 2873 
Q 3191 2616 2906 2266 
Q 2828 2175 2409 1742 
Q 1991 1309 1228 531 
z
" transform="scale(0.015625)"/>
       </defs>
       <use xlink:href="#DejaVuSans-32"/>
       <use xlink:href="#DejaVuSans-32" x="63.623047"/>
       <use xlink:href="#DejaVuSans-35" x="127.246094"/>
       <use xlink:href="#DejaVuSans-b0" x="190.869141"/>
      </g>
     </g>
    </g>
    <g id="xtick_7">
     <g id="line2d_7">
      <path d="M 184.5 181.8 
L 323.1 181.8 
" clip-path="url(#p042f1dd3a0)" style="fill: none; stroke: #b0b0b0; stroke-width: 0.8; stroke-linecap: square"/>
     </g>
     <g id="text_7">
      <!-- 270° -->
      <g transform="translate(325.05625 184.559375) scale(0.1 -0.1)">
       <defs>
        <path id="DejaVuSans-37" d="M 525 4666 
L 3525 4666 
L 3525 4397 
L 1831 0 
L 1172 0 
L 2766 4134 
L 525 4134 
L 525 4666 
z
" transform="scale(0.015625)"/>
       </defs>
       <use xlink:href="#DejaVuSans-32"/>
       <use xlink:href="#DejaVuSans-37" x="63.623047"/>
       <use xlink:href="#DejaVuSans-30" x="127.246094"/>
       <use xlink:href="#DejaVuSans-b0" x="190.869141"/>
      </g>
     </g>
    </g>
    <g id="xtick_8">
     <g id="line2d_8">
      <path d="M 184.5 181.8 
L 282.505 83.795 
" clip-path="url(#p042f1dd3a0)" style="fill: none; stroke: #b0b0b0; stroke-width: 0.8; stroke-linecap: square"/>
     </g>
     <g id="text_8">
      <!-- 315° -->
      <g transform="translate(280.360745 76.65488) scale(0.1 -0.1)">
       <use xlink:href="#DejaVuSans-33"/>
       <use xlink:href="#DejaVuSans-31" x="63.623047"/>
       <use xlink:href="#DejaVuSans-35" x="127.246094"/>
       <use xlink:href="#DejaVuSans-b0" x="190.869141"/>
      </g>
     </g>
    </g>
   </g>
   <g id="matplotlib.axis_2">
    <g id="ytick_1">
     <g id="line2d_9">
      <path d="M 184.5 176.528859 
C 183.8078 176.528859 183.122331 176.665207 182.482822 176.930101 
C 181.843312 177.194994 181.2622 177.583281 180.77274 178.07274 
C 180.283281 178.5622 179.894994 179.143312 179.630101 179.782822 
C 179.365207 180.422331 179.228859 181.1078 179.228859 181.8 
C 179.228859 182.4922 179.365207 183.177669 179.630101 183.817178 
C 179.894994 184.456688 180.283281 185.0378 180.77274 185.52726 
C 181.2622 186.016719 181.843312 186.405006 182.482822 186.669899 
C 183.122331 186.934793 183.8078 187.071141 184.5 187.071141 
C 185.1922 187.071141 185.877669 186.934793 186.517178 186.669899 
C 187.156688 186.405006 187.7378 186.016719 188.22726 185.52726 
C 188.716719 185.0378 189.105006 184.456688 189.369899 183.817178 
C 189.634793 183.177669 189.771141 182.4922 189.771141 181.8 
C 189.771141 181.1078 189.634793 180.422331 189.369899 179.782822 
C 189.105006 179.143312 188.716719 178.5622 188.22726 178.07274 
C 187.7378 177.583281 187.156688 177.194994 186.517178 176.930101 
C 185.877669 176.665207 185.1922 176.528859 184.5 176.528859 
" clip-path="url(#p042f1dd3a0)" style="fill: none; stroke: #b0b0b0; stroke-width: 0.8; stroke-linecap: square"/>
     </g>
     <g id="text_9">
      <!-- −73 -->
      <g transform="translate(182.482822 174.850413) scale(0.1 -0.1)">
       <defs>
        <path id="DejaVuSans-2212" d="M 678 2272 
L 4684 2272 
L 4684 1741 
L 678 1741 
L 678 2272 
z
" transform="scale(0.015625)"/>
       </defs>
       <use xlink:href="#DejaVuSans-2212"/>
       <use xlink:href="#DejaVuSans-37" x="83.789062"/>
       <use xlink:href="#DejaVuSans-33" x="147.412109"/>
      </g>
     </g>
    </g>
    <g id="ytick_2">
     <g id="line2d_10">
      <path d="M 184.5 161.025503 
C 181.771918 161.025503 179.070363 161.562876 176.549944 162.606868 
C 174.029525 163.650859 171.739258 165.181167 169.810213 167.110213 
C 167.881167 169.039258 166.350859 171.329525 165.306868 173.849944 
C 164.262876 176.370363 163.725503 179.071918 163.725503 181.8 
C 163.725503 184.528082 164.262876 187.229637 165.306868 189.750056 
C 166.350859 192.270475 167.881167 194.560742 169.810213 196.489787 
C 171.739258 198.418833 174.029525 199.949141 176.549944 200.993132 
C 179.070363 202.037124 181.771918 202.574497 184.5 202.574497 
C 187.228082 202.574497 189.929637 202.037124 192.450056 200.993132 
C 194.970475 199.949141 197.260742 198.418833 199.189787 196.489787 
C 201.118833 194.560742 202.649141 192.270475 203.693132 189.750056 
C 204.737124 187.229637 205.274497 184.528082 205.274497 181.8 
C 205.274497 179.071918 204.737124 176.370363 203.693132 173.849944 
C 202.649141 171.329525 201.118833 169.039258 199.189787 167.110213 
C 197.260742 165.181167 194.970475 163.650859 192.450056 162.606868 
C 189.929637 161.562876 187.228082 161.025503 184.5 161.025503 
" clip-path="url(#p042f1dd3a0)" style="fill: none; stroke: #b0b0b0; stroke-width: 0.8; stroke-linecap: square"/>
     </g>
     <g id="text_10">
      <!-- −68 -->
      <g transform="translate(176.549944 160.52718) scale(0.1 -0.1)">
       <defs>
        <path id="DejaVuSans-36" d="M 2113 2584 
Q 1688 2584 1439 2293 
Q 1191 2003 1191 1497 
Q 1191 994 1439 701 
Q 1688 409 2113 409 
Q 2538 409 2786 701 
Q 3034 994 3034 1497 
Q 3034 2003 2786 2293 
Q 2538 2584 2113 2584 
z
M 3366 4563 
L 3366 3988 
Q 3128 4100 2886 4159 
Q 2644 4219 2406 4219 
Q 1781 4219 1451 3797 
Q 1122 3375 1075 2522 
Q 1259 2794 1537 2939 
Q 1816 3084 2150 3084 
Q 2853 3084 3261 2657 
Q 3669 2231 3669 1497 
Q 3669 778 3244 343 
Q 2819 -91 2113 -91 
Q 1303 -91 875 529 
Q 447 1150 447 2328 
Q 447 3434 972 4092 
Q 1497 4750 2381 4750 
Q 2619 4750 2861 4703 
Q 3103 4656 3366 4563 
z
" transform="scale(0.015625)"/>
       </defs>
       <use xlink:href="#DejaVuSans-2212"/>
       <use xlink:href="#DejaVuSans-36" x="83.789062"/>
       <use xlink:href="#DejaVuSans-38" x="147.412109"/>
      </g>
     </g>
    </g>
    <g id="ytick_3">
     <g id="line2d_11">
      <path d="M 184.5 145.522148 
C 179.736036 145.522148 175.018396 146.460545 170.617067 148.283635 
C 166.215738 150.106725 162.216316 152.779053 158.847685 156.147685 
C 155.479053 159.516316 152.806725 163.515738 150.983635 167.917067 
C 149.160545 172.318396 148.222148 177.036036 148.222148 181.8 
C 148.222148 186.563964 149.160545 191.281604 150.983635 195.682933 
C 152.806725 200.084262 155.479053 204.083684 158.847685 207.452315 
C 162.216316 210.820947 166.215738 213.493275 170.617067 215.316365 
C 175.018396 217.139455 179.736036 218.077852 184.5 218.077852 
C 189.263964 218.077852 193.981604 217.139455 198.382933 215.316365 
C 202.784262 213.493275 206.783684 210.820947 210.152315 207.452315 
C 213.520947 204.083684 216.193275 200.084262 218.016365 195.682933 
C 219.839455 191.281604 220.777852 186.563964 220.777852 181.8 
C 220.777852 177.036036 219.839455 172.318396 218.016365 167.917067 
C 216.193275 163.515738 213.520947 159.516316 210.152315 156.147685 
C 206.783684 152.779053 202.784262 150.106725 198.382933 148.283635 
C 193.981604 146.460545 189.263964 145.522148 184.5 145.522148 
" clip-path="url(#p042f1dd3a0)" style="fill: none; stroke: #b0b0b0; stroke-width: 0.8; stroke-linecap: square"/>
     </g>
     <g id="text_11">
      <!-- −63 -->
      <g transform="translate(170.617067 146.203947) scale(0.1 -0.1)">
       <use xlink:href="#DejaVuSans-2212"/>
       <use xlink:href="#DejaVuSans-36" x="83.789062"/>
       <use xlink:href="#DejaVuSans-33" x="147.412109"/>
      </g>
     </g>
    </g>
    <g id="ytick_4">
     <g id="line2d_12">
      <path d="M 184.5 130.018792 
C 177.700154 130.018792 170.966428 131.358213 164.68419 133.960402 
C 158.401951 136.56259 152.693374 140.376939 147.885157 145.185157 
C 143.076939 149.993374 139.26259 155.701951 136.660402 161.98419 
C 134.058213 168.266428 132.718792 175.000154 132.718792 181.8 
C 132.718792 188.599846 134.058213 195.333572 136.660402 201.61581 
C 139.26259 207.898049 143.076939 213.606626 147.885157 218.414843 
C 152.693374 223.223061 158.401951 227.03741 164.68419 229.639598 
C 170.966428 232.241787 177.700154 233.581208 184.5 233.581208 
C 191.299846 233.581208 198.033572 232.241787 204.31581 229.639598 
C 210.598049 227.03741 216.306626 223.223061 221.114843 218.414843 
C 225.923061 213.606626 229.73741 207.898049 232.339598 201.61581 
C 234.941787 195.333572 236.281208 188.599846 236.281208 181.8 
C 236.281208 175.000154 234.941787 168.266428 232.339598 161.98419 
C 229.73741 155.701951 225.923061 149.993374 221.114843 145.185157 
C 216.306626 140.376939 210.598049 136.56259 204.31581 133.960402 
C 198.033572 131.358213 191.299846 130.018792 184.5 130.018792 
" clip-path="url(#p042f1dd3a0)" style="fill: none; stroke: #b0b0b0; stroke-width: 0.8; stroke-linecap: square"/>
     </g>
     <g id="text_12">
      <!-- −58 -->
      <g transform="translate(164.68419 131.880714) scale(0.1 -0.1)">
       <use xlink:href="#DejaVuSans-2212"/>
       <use xlink:href="#DejaVuSans-35" x="83.789062"/>
       <use xlink:href="#DejaVuSans-38" x="147.412109"/>
      </g>
     </g>
    </g>
    <g id="ytick_5">
     <g id="line2d_13">
      <path d="M 184.5 114.515436 
C 175.664272 114.515436 166.91446 116.255882 158.751312 119.637169 
C 150.588164 123.018455 143.170432 127.974826 136.922629 134.222629 
C 130.674826 140.470432 125.718455 147.888164 122.337169 156.051312 
C 118.955882 164.21446 117.215436 172.964272 117.215436 181.8 
C 117.215436 190.635728 118.955882 199.38554 122.337169 207.548688 
C 125.718455 215.711836 130.674826 223.129568 136.922629 229.377371 
C 143.170432 235.625174 150.588164 240.581545 158.751312 243.962831 
C 166.91446 247.344118 175.664272 249.084564 184.5 249.084564 
C 193.335728 249.084564 202.08554 247.344118 210.248688 243.962831 
C 218.411836 240.581545 225.829568 235.625174 232.077371 229.377371 
C 238.325174 223.129568 243.281545 215.711836 246.662831 207.548688 
C 250.044118 199.38554 251.784564 190.635728 251.784564 181.8 
C 251.784564 172.964272 250.044118 164.21446 246.662831 156.051312 
C 243.281545 147.888164 238.325174 140.470432 232.077371 134.222629 
C 225.829568 127.974826 218.411836 123.018455 210.248688 119.637169 
C 202.08554 116.255882 193.335728 114.515436 184.5 114.515436 
" clip-path="url(#p042f1dd3a0)" style="fill: none; stroke: #b0b0b0; stroke-width: 0.8; stroke-linecap: square"/>
     </g>
     <g id="text_13">
      <!-- −53 -->
      <g transform="translate(158.751312 117.557481) scale(0.1 -0.1)">
       <use xlink:href="#DejaVuSans-2212"/>
       <use xlink:href="#DejaVuSans-35" x="83.789062"/>
       <use xlink:href="#DejaVuSans-33" x="147.412109"/>
      </g>
     </g>
    </g>
    <g id="ytick_6">
     <g id="line2d_14">
      <path d="M 184.5 99.012081 
C 173.62839 99.012081 162.862493 101.153551 152.818435 105.313936 
C 142.774377 109.474321 133.64749 115.572712 125.960101 123.260101 
C 118.272712 130.94749 112.174321 140.074377 108.013936 150.118435 
C 103.853551 160.162493 101.712081 170.92839 101.712081 181.8 
C 101.712081 192.67161 103.853551 203.437507 108.013936 213.481565 
C 112.174321 223.525623 118.272712 232.65251 125.960101 240.339899 
C 133.64749 248.027288 142.774377 254.125679 152.818435 258.286064 
C 162.862493 262.446449 173.62839 264.587919 184.5 264.587919 
C 195.37161 264.587919 206.137507 262.446449 216.181565 258.286064 
C 226.225623 254.125679 235.35251 248.027288 243.039899 240.339899 
C 250.727288 232.65251 256.825679 223.525623 260.986064 213.481565 
C 265.146449 203.437507 267.287919 192.67161 267.287919 181.8 
C 267.287919 170.92839 265.146449 160.162493 260.986064 150.118435 
C 256.825679 140.074377 250.727288 130.94749 243.039899 123.260101 
C 235.35251 115.572712 226.225623 109.474321 216.181565 105.313936 
C 206.137507 101.153551 195.37161 99.012081 184.5 99.012081 
" clip-path="url(#p042f1dd3a0)" style="fill: none; stroke: #b0b0b0; stroke-width: 0.8; stroke-linecap: square"/>
     </g>
     <g id="text_14">
      <!-- −48 -->
      <g transform="translate(152.818435 103.234248) scale(0.1 -0.1)">
       <use xlink:href="#DejaVuSans-2212"/>
       <use xlink:href="#DejaVuSans-34" x="83.789062"/>
       <use xlink:href="#DejaVuSans-38" x="147.412109"/>
      </g>
     </g>
    </g>
    <g id="ytick_7">
     <g id="line2d_15">
      <path d="M 184.5 83.508725 
C 171.592508 83.508725 158.810525 86.051219 146.885557 90.990703 
C 134.96059 95.930186 124.124548 103.170598 114.997573 112.297573 
C 105.870598 121.424548 98.630186 132.26059 93.690703 144.185557 
C 88.751219 156.110525 86.208725 168.892508 86.208725 181.8 
C 86.208725 194.707492 88.751219 207.489475 93.690703 219.414443 
C 98.630186 231.33941 105.870598 242.175452 114.997573 251.302427 
C 124.124548 260.429402 134.96059 267.669814 146.885557 272.609297 
C 158.810525 277.548781 171.592508 280.091275 184.5 280.091275 
C 197.407492 280.091275 210.189475 277.548781 222.114443 272.609297 
C 234.03941 267.669814 244.875452 260.429402 254.002427 251.302427 
C 263.129402 242.175452 270.369814 231.33941 275.309297 219.414443 
C 280.248781 207.489475 282.791275 194.707492 282.791275 181.8 
C 282.791275 168.892508 280.248781 156.110525 275.309297 144.185557 
C 270.369814 132.26059 263.129402 121.424548 254.002427 112.297573 
C 244.875452 103.170598 234.03941 95.930186 222.114443 90.990703 
C 210.189475 86.051219 197.407492 83.508725 184.5 83.508725 
" clip-path="url(#p042f1dd3a0)" style="fill: none; stroke: #b0b0b0; stroke-width: 0.8; stroke-linecap: square"/>
     </g>
     <g id="text_15">
      <!-- −43 -->
      <g transform="translate(146.885557 88.911015) scale(0.1 -0.1)">
       <use xlink:href="#DejaVuSans-2212"/>
       <use xlink:href="#DejaVuSans-34" x="83.789062"/>
       <use xlink:href="#DejaVuSans-33" x="147.412109"/>
      </g>
     </g>
    </g>
    <g id="ytick_8">
     <g id="line2d_16">
      <path d="M 184.5 68.005369 
C 169.556626 68.005369 154.758557 70.948888 140.95268 76.66747 
C 127.146803 82.386051 114.601606 90.768484 104.035045 101.335045 
C 93.468484 111.901606 85.086051 124.446803 79.36747 138.25268 
C 73.648888 152.058557 70.705369 166.856626 70.705369 181.8 
C 70.705369 196.743374 73.648888 211.541443 79.36747 225.34732 
C 85.086051 239.153197 93.468484 251.698394 104.035045 262.264955 
C 114.601606 272.831516 127.146803 281.213949 140.95268 286.93253 
C 154.758557 292.651112 169.556626 295.594631 184.5 295.594631 
C 199.443374 295.594631 214.241443 292.651112 228.04732 286.93253 
C 241.853197 281.213949 254.398394 272.831516 264.964955 262.264955 
C 275.531516 251.698394 283.913949 239.153197 289.63253 225.34732 
C 295.351112 211.541443 298.294631 196.743374 298.294631 181.8 
C 298.294631 166.856626 295.351112 152.058557 289.63253 138.25268 
C 283.913949 124.446803 275.531516 111.901606 264.964955 101.335045 
C 254.398394 90.768484 241.853197 82.386051 228.04732 76.66747 
C 214.241443 70.948888 199.443374 68.005369 184.5 68.005369 
" clip-path="url(#p042f1dd3a0)" style="fill: none; stroke: #b0b0b0; stroke-width: 0.8; stroke-linecap: square"/>
     </g>
     <g id="text_16">
      <!-- −38 -->
      <g transform="translate(140.95268 74.587782) scale(0.1 -0.1)">
       <use xlink:href="#DejaVuSans-2212"/>
       <use xlink:href="#DejaVuSans-33" x="83.789062"/>
       <use xlink:href="#DejaVuSans-38" x="147.412109"/>
      </g>
     </g>
    </g>
    <g id="ytick_9">
     <g id="line2d_17">
      <path d="M 184.5 52.502013 
C 167.520744 52.502013 150.70659 55.846557 135.019803 62.344237 
C 119.333016 68.841917 105.078664 78.36637 93.072517 90.372517 
C 81.06637 102.378664 71.541917 116.633016 65.044237 132.319803 
C 58.546557 148.00659 55.202013 164.820744 55.202013 181.8 
C 55.202013 198.779256 58.546557 215.59341 65.044237 231.280197 
C 71.541917 246.966984 81.06637 261.221336 93.072517 273.227483 
C 105.078664 285.23363 119.333016 294.758083 135.019803 301.255763 
C 150.70659 307.753443 167.520744 311.097987 184.5 311.097987 
C 201.479256 311.097987 218.29341 307.753443 233.980197 301.255763 
C 249.666984 294.758083 263.921336 285.23363 275.927483 273.227483 
C 287.93363 261.221336 297.458083 246.966984 303.955763 231.280197 
C 310.453443 215.59341 313.797987 198.779256 313.797987 181.8 
C 313.797987 164.820744 310.453443 148.00659 303.955763 132.319803 
C 297.458083 116.633016 287.93363 102.378664 275.927483 90.372517 
C 263.921336 78.36637 249.666984 68.841917 233.980197 62.344237 
C 218.29341 55.846557 201.479256 52.502013 184.5 52.502013 
" clip-path="url(#p042f1dd3a0)" style="fill: none; stroke: #b0b0b0; stroke-width: 0.8; stroke-linecap: square"/>
     </g>
     <g id="text_17">
      <!-- −33 -->
      <g transform="translate(135.019803 60.264549) scale(0.1 -0.1)">
       <use xlink:href="#DejaVuSans-2212"/>
       <use xlink:href="#DejaVuSans-33" x="83.789062"/>
       <use xlink:href="#DejaVuSans-33" x="147.412109"/>
      </g>
     </g>
    </g>
   </g>
   <g id="line2d_18">
    <path d="M 184.5 224.279195 
L 191.481861 207.85666 
L 207.289933 221.273322 
L 205.767304 203.067304 
L 215.917542 199.938926 
L 216.546696 190.386886 
L 223.878523 181.8 
L 246.49688 165.187986 
L 242.770141 148.157718 
L 240.847394 125.452606 
L 232.095302 99.362519 
L 212.347192 77.872864 
L 184.5 71.10604 
L 157.455321 80.867882 
L 133.804027 93.991999 
L 121.57509 118.87509 
L 126.229859 148.157718 
L 152.453304 173.213114 
L 145.121477 181.8 
L 143.468249 192.794425 
L 169.194018 190.636913 
L 180.77274 185.52726 
L 181.86443 186.364942 
L 175.913114 213.846696 
L 184.5 224.279195 
" clip-path="url(#p042f1dd3a0)" style="fill: none; stroke: #1f77b4; stroke-width: 1.5; stroke-linecap: square"/>
    <defs>
     <path id="mcc03ce46e6" d="M 0 3 
C 0.795609 3 1.55874 2.683901 2.12132 2.12132 
C 2.683901 1.55874 3 0.795609 3 0 
C 3 -0.795609 2.683901 -1.55874 2.12132 -2.12132 
C 1.55874 -2.683901 0.795609 -3 0 -3 
C -0.795609 -3 -1.55874 -2.683901 -2.12132 -2.12132 
C -2.683901 -1.55874 -3 -0.795609 -3 0 
C -3 0.795609 -2.683901 1.55874 -2.12132 2.12132 
C -1.55874 2.683901 -0.795609 3 0 3 
z
" style="stroke: #1f77b4"/>
    </defs>
    <g clip-path="url(#p042f1dd3a0)">
     <use xlink:href="#mcc03ce46e6" x="184.5" y="224.279195" style="fill: #1f77b4; stroke: #1f77b4"/>
     <use xlink:href="#mcc03ce46e6" x="191.481861" y="207.85666" style="fill: #1f77b4; stroke: #1f77b4"/>
     <use xlink:href="#mcc03ce46e6" x="207.289933" y="221.273322" style="fill: #1f77b4; stroke: #1f77b4"/>
     <use xlink:href="#mcc03ce46e6" x="205.767304" y="203.067304" style="fill: #1f77b4; stroke: #1f77b4"/>
     <use xlink:href="#mcc03ce46e6" x="215.917542" y="199.938926" style="fill: #1f77b4; stroke: #1f77b4"/>
     <use xlink:href="#mcc03ce46e6" x="216.546696" y="190.386886" style="fill: #1f77b4; stroke: #1f77b4"/>
     <use xlink:href="#mcc03ce46e6" x="223.878523" y="181.8" style="fill: #1f77b4; stroke: #1f77b4"/>
     <use xlink:href="#mcc03ce46e6" x="246.49688" y="165.187986" style="fill: #1f77b4; stroke: #1f77b4"/>
     <use xlink:href="#mcc03ce46e6" x="242.770141" y="148.157718" style="fill: #1f77b4; stroke: #1f77b4"/>
     <use xlink:href="#mcc03ce46e6" x="240.847394" y="125.452606" style="fill: #1f77b4; stroke: #1f77b4"/>
     <use xlink:href="#mcc03ce46e6" x="232.095302" y="99.362519" style="fill: #1f77b4; stroke: #1f77b4"/>
     <use xlink:href="#mcc03ce46e6" x="212.347192" y="77.872864" style="fill: #1f77b4; stroke: #1f77b4"/>
     <use xlink:href="#mcc03ce46e6" x="184.5" y="71.10604" style="fill: #1f77b4; stroke: #1f77b4"/>
     <use xlink:href="#mcc03ce46e6" x="157.455321" y="80.867882" style="fill: #1f77b4; stroke: #1f77b4"/>
     <use xlink:href="#mcc03ce46e6" x="133.804027" y="93.991999" style="fill: #1f77b4; stroke: #1f77b4"/>
     <use xlink:href="#mcc03ce46e6" x="121.57509" y="118.87509" style="fill: #1f77b4; stroke: #1f77b4"/>
     <use xlink:href="#mcc03ce46e6" x="126.229859" y="148.157718" style="fill: #1f77b4; stroke: #1f77b4"/>
     <use xlink:href="#mcc03ce46e6" x="152.453304" y="173.213114" style="fill: #1f77b4; stroke: #1f77b4"/>
     <use xlink:href="#mcc03ce46e6" x="145.121477" y="181.8" style="fill: #1f77b4; stroke: #1f77b4"/>
     <use xlink:href="#mcc03ce46e6" x="143.468249" y="192.794425" style="fill: #1f77b4; stroke: #1f77b4"/>
     <use xlink:href="#mcc03ce46e6" x="169.194018" y="190.636913" style="fill: #1f77b4; stroke: #1f77b4"/>
     <use xlink:href="#mcc03ce46e6" x="180.77274" y="185.52726" style="fill: #1f77b4; stroke: #1f77b4"/>
     <use xlink:href="#mcc03ce46e6" x="181.86443" y="186.364942" style="fill: #1f77b4; stroke: #1f77b4"/>
     <use xlink:href="#mcc03ce46e6" x="175.913114" y="213.846696" style="fill: #1f77b4; stroke: #1f77b4"/>
     <use xlink:href="#mcc03ce46e6" x="184.5" y="224.279195" style="fill: #1f77b4; stroke: #1f77b4"/>
    </g>
   </g>
   <g id="patch_3">
    <path d="M 184.5 43.2 
C 166.299215 43.2 148.275409 46.785158 131.460076 53.750297 
C 114.644743 60.715436 99.364899 70.925101 86.495 83.795 
C 73.625101 96.664899 63.415436 111.944743 56.450297 128.760076 
C 49.485158 145.575409 45.9 163.599215 45.9 181.8 
C 45.9 200.000785 49.485158 218.024591 56.450297 234.839924 
C 63.415436 251.655257 73.625101 266.935101 86.495 279.805 
C 99.364899 292.674899 114.644743 302.884564 131.460076 309.849703 
C 148.275409 316.814842 166.299215 320.4 184.5 320.4 
C 202.700785 320.4 220.724591 316.814842 237.539924 309.849703 
C 254.355257 302.884564 269.635101 292.674899 282.505 279.805 
C 295.374899 266.935101 305.584564 251.655257 312.549703 234.839924 
C 319.514842 218.024591 323.1 200.000785 323.1 181.8 
C 323.1 163.599215 319.514842 145.575409 312.549703 128.760076 
C 305.584564 111.944743 295.374899 96.664899 282.505 83.795 
C 269.635101 70.925101 254.355257 60.715436 237.539924 53.750297 
C 220.724591 46.785158 202.700785 43.2 184.5 43.2 
" style="fill: none; stroke: #000000; stroke-width: 0.8; stroke-linejoin: miter; stroke-linecap: square"/>
   </g>
   <g id="text_18">
    <!-- Radiation Pattern for Cookie Heart L -->
    <g transform="translate(76.365938 15.865312) scale(0.12 -0.12)">
     <defs>
      <path id="DejaVuSans-52" d="M 2841 2188 
Q 3044 2119 3236 1894 
Q 3428 1669 3622 1275 
L 4263 0 
L 3584 0 
L 2988 1197 
Q 2756 1666 2539 1819 
Q 2322 1972 1947 1972 
L 1259 1972 
L 1259 0 
L 628 0 
L 628 4666 
L 2053 4666 
Q 2853 4666 3247 4331 
Q 3641 3997 3641 3322 
Q 3641 2881 3436 2590 
Q 3231 2300 2841 2188 
z
M 1259 4147 
L 1259 2491 
L 2053 2491 
Q 2509 2491 2742 2702 
Q 2975 2913 2975 3322 
Q 2975 3731 2742 3939 
Q 2509 4147 2053 4147 
L 1259 4147 
z
" transform="scale(0.015625)"/>
      <path id="DejaVuSans-61" d="M 2194 1759 
Q 1497 1759 1228 1600 
Q 959 1441 959 1056 
Q 959 750 1161 570 
Q 1363 391 1709 391 
Q 2188 391 2477 730 
Q 2766 1069 2766 1631 
L 2766 1759 
L 2194 1759 
z
M 3341 1997 
L 3341 0 
L 2766 0 
L 2766 531 
Q 2569 213 2275 61 
Q 1981 -91 1556 -91 
Q 1019 -91 701 211 
Q 384 513 384 1019 
Q 384 1609 779 1909 
Q 1175 2209 1959 2209 
L 2766 2209 
L 2766 2266 
Q 2766 2663 2505 2880 
Q 2244 3097 1772 3097 
Q 1472 3097 1187 3025 
Q 903 2953 641 2809 
L 641 3341 
Q 956 3463 1253 3523 
Q 1550 3584 1831 3584 
Q 2591 3584 2966 3190 
Q 3341 2797 3341 1997 
z
" transform="scale(0.015625)"/>
      <path id="DejaVuSans-64" d="M 2906 2969 
L 2906 4863 
L 3481 4863 
L 3481 0 
L 2906 0 
L 2906 525 
Q 2725 213 2448 61 
Q 2172 -91 1784 -91 
Q 1150 -91 751 415 
Q 353 922 353 1747 
Q 353 2572 751 3078 
Q 1150 3584 1784 3584 
Q 2172 3584 2448 3432 
Q 2725 3281 2906 2969 
z
M 947 1747 
Q 947 1113 1208 752 
Q 1469 391 1925 391 
Q 2381 391 2643 752 
Q 2906 1113 2906 1747 
Q 2906 2381 2643 2742 
Q 2381 3103 1925 3103 
Q 1469 3103 1208 2742 
Q 947 2381 947 1747 
z
" transform="scale(0.015625)"/>
      <path id="DejaVuSans-69" d="M 603 3500 
L 1178 3500 
L 1178 0 
L 603 0 
L 603 3500 
z
M 603 4863 
L 1178 4863 
L 1178 4134 
L 603 4134 
L 603 4863 
z
" transform="scale(0.015625)"/>
      <path id="DejaVuSans-74" d="M 1172 4494 
L 1172 3500 
L 2356 3500 
L 2356 3053 
L 1172 3053 
L 1172 1153 
Q 1172 725 1289 603 
Q 1406 481 1766 481 
L 2356 481 
L 2356 0 
L 1766 0 
Q 1100 0 847 248 
Q 594 497 594 1153 
L 594 3053 
L 172 3053 
L 172 3500 
L 594 3500 
L 594 4494 
L 1172 4494 
z
" transform="scale(0.015625)"/>
      <path id="DejaVuSans-6f" d="M 1959 3097 
Q 1497 3097 1228 2736 
Q 959 2375 959 1747 
Q 959 1119 1226 758 
Q 1494 397 1959 397 
Q 2419 397 2687 759 
Q 2956 1122 2956 1747 
Q 2956 2369 2687 2733 
Q 2419 3097 1959 3097 
z
M 1959 3584 
Q 2709 3584 3137 3096 
Q 3566 2609 3566 1747 
Q 3566 888 3137 398 
Q 2709 -91 1959 -91 
Q 1206 -91 779 398 
Q 353 888 353 1747 
Q 353 2609 779 3096 
Q 1206 3584 1959 3584 
z
" transform="scale(0.015625)"/>
      <path id="DejaVuSans-6e" d="M 3513 2113 
L 3513 0 
L 2938 0 
L 2938 2094 
Q 2938 2591 2744 2837 
Q 2550 3084 2163 3084 
Q 1697 3084 1428 2787 
Q 1159 2491 1159 1978 
L 1159 0 
L 581 0 
L 581 3500 
L 1159 3500 
L 1159 2956 
Q 1366 3272 1645 3428 
Q 1925 3584 2291 3584 
Q 2894 3584 3203 3211 
Q 3513 2838 3513 2113 
z
" transform="scale(0.015625)"/>
      <path id="DejaVuSans-20" transform="scale(0.015625)"/>
      <path id="DejaVuSans-50" d="M 1259 4147 
L 1259 2394 
L 2053 2394 
Q 2494 2394 2734 2622 
Q 2975 2850 2975 3272 
Q 2975 3691 2734 3919 
Q 2494 4147 2053 4147 
L 1259 4147 
z
M 628 4666 
L 2053 4666 
Q 2838 4666 3239 4311 
Q 3641 3956 3641 3272 
Q 3641 2581 3239 2228 
Q 2838 1875 2053 1875 
L 1259 1875 
L 1259 0 
L 628 0 
L 628 4666 
z
" transform="scale(0.015625)"/>
      <path id="DejaVuSans-65" d="M 3597 1894 
L 3597 1613 
L 953 1613 
Q 991 1019 1311 708 
Q 1631 397 2203 397 
Q 2534 397 2845 478 
Q 3156 559 3463 722 
L 3463 178 
Q 3153 47 2828 -22 
Q 2503 -91 2169 -91 
Q 1331 -91 842 396 
Q 353 884 353 1716 
Q 353 2575 817 3079 
Q 1281 3584 2069 3584 
Q 2775 3584 3186 3129 
Q 3597 2675 3597 1894 
z
M 3022 2063 
Q 3016 2534 2758 2815 
Q 2500 3097 2075 3097 
Q 1594 3097 1305 2825 
Q 1016 2553 972 2059 
L 3022 2063 
z
" transform="scale(0.015625)"/>
      <path id="DejaVuSans-72" d="M 2631 2963 
Q 2534 3019 2420 3045 
Q 2306 3072 2169 3072 
Q 1681 3072 1420 2755 
Q 1159 2438 1159 1844 
L 1159 0 
L 581 0 
L 581 3500 
L 1159 3500 
L 1159 2956 
Q 1341 3275 1631 3429 
Q 1922 3584 2338 3584 
Q 2397 3584 2469 3576 
Q 2541 3569 2628 3553 
L 2631 2963 
z
" transform="scale(0.015625)"/>
      <path id="DejaVuSans-66" d="M 2375 4863 
L 2375 4384 
L 1825 4384 
Q 1516 4384 1395 4259 
Q 1275 4134 1275 3809 
L 1275 3500 
L 2222 3500 
L 2222 3053 
L 1275 3053 
L 1275 0 
L 697 0 
L 697 3053 
L 147 3053 
L 147 3500 
L 697 3500 
L 697 3744 
Q 697 4328 969 4595 
Q 1241 4863 1831 4863 
L 2375 4863 
z
" transform="scale(0.015625)"/>
      <path id="DejaVuSans-43" d="M 4122 4306 
L 4122 3641 
Q 3803 3938 3442 4084 
Q 3081 4231 2675 4231 
Q 1875 4231 1450 3742 
Q 1025 3253 1025 2328 
Q 1025 1406 1450 917 
Q 1875 428 2675 428 
Q 3081 428 3442 575 
Q 3803 722 4122 1019 
L 4122 359 
Q 3791 134 3420 21 
Q 3050 -91 2638 -91 
Q 1578 -91 968 557 
Q 359 1206 359 2328 
Q 359 3453 968 4101 
Q 1578 4750 2638 4750 
Q 3056 4750 3426 4639 
Q 3797 4528 4122 4306 
z
" transform="scale(0.015625)"/>
      <path id="DejaVuSans-6b" d="M 581 4863 
L 1159 4863 
L 1159 1991 
L 2875 3500 
L 3609 3500 
L 1753 1863 
L 3688 0 
L 2938 0 
L 1159 1709 
L 1159 0 
L 581 0 
L 581 4863 
z
" transform="scale(0.015625)"/>
      <path id="DejaVuSans-48" d="M 628 4666 
L 1259 4666 
L 1259 2753 
L 3553 2753 
L 3553 4666 
L 4184 4666 
L 4184 0 
L 3553 0 
L 3553 2222 
L 1259 2222 
L 1259 0 
L 628 0 
L 628 4666 
z
" transform="scale(0.015625)"/>
      <path id="DejaVuSans-4c" d="M 628 4666 
L 1259 4666 
L 1259 531 
L 3531 531 
L 3531 0 
L 628 0 
L 628 4666 
z
" transform="scale(0.015625)"/>
     </defs>
     <use xlink:href="#DejaVuSans-52"/>
     <use xlink:href="#DejaVuSans-61" x="67.232422"/>
     <use xlink:href="#DejaVuSans-64" x="128.511719"/>
     <use xlink:href="#DejaVuSans-69" x="191.988281"/>
     <use xlink:href="#DejaVuSans-61" x="219.771484"/>
     <use xlink:href="#DejaVuSans-74" x="281.050781"/>
     <use xlink:href="#DejaVuSans-69" x="320.259766"/>
     <use xlink:href="#DejaVuSans-6f" x="348.042969"/>
     <use xlink:href="#DejaVuSans-6e" x="409.224609"/>
     <use xlink:href="#DejaVuSans-20" x="472.603516"/>
     <use xlink:href="#DejaVuSans-50" x="504.390625"/>
     <use xlink:href="#DejaVuSans-61" x="560.193359"/>
     <use xlink:href="#DejaVuSans-74" x="621.472656"/>
     <use xlink:href="#DejaVuSans-74" x="660.681641"/>
     <use xlink:href="#DejaVuSans-65" x="699.890625"/>
     <use xlink:href="#DejaVuSans-72" x="761.414062"/>
     <use xlink:href="#DejaVuSans-6e" x="800.777344"/>
     <use xlink:href="#DejaVuSans-20" x="864.15625"/>
     <use xlink:href="#DejaVuSans-66" x="895.943359"/>
     <use xlink:href="#DejaVuSans-6f" x="931.148438"/>
     <use xlink:href="#DejaVuSans-72" x="992.330078"/>
     <use xlink:href="#DejaVuSans-20" x="1033.443359"/>
     <use xlink:href="#DejaVuSans-43" x="1065.230469"/>
     <use xlink:href="#DejaVuSans-6f" x="1135.054688"/>
     <use xlink:href="#DejaVuSans-6f" x="1196.236328"/>
     <use xlink:href="#DejaVuSans-6b" x="1257.417969"/>
     <use xlink:href="#DejaVuSans-69" x="1315.328125"/>
     <use xlink:href="#DejaVuSans-65" x="1343.111328"/>
     <use xlink:href="#DejaVuSans-20" x="1404.634766"/>
     <use xlink:href="#DejaVuSans-48" x="1436.421875"/>
     <use xlink:href="#DejaVuSans-65" x="1511.617188"/>
     <use xlink:href="#DejaVuSans-61" x="1573.140625"/>
     <use xlink:href="#DejaVuSans-72" x="1634.419922"/>
     <use xlink:href="#DejaVuSans-74" x="1675.533203"/>
     <use xlink:href="#DejaVuSans-20" x="1714.742188"/>
     <use xlink:href="#DejaVuSans-4c" x="1746.529297"/>
    </g>
   </g>
  </g>
 </g>
 <defs>
  <clipPath id="p042f1dd3a0">
   <path d="M 323.1 181.8 
C 323.1 163.599215 319.514842 145.575409 312.549703 128.760076 
C 305.584564 111.944743 295.374899 96.664899 282.505 83.795 
C 269.635101 70.925101 254.355257 60.715436 237.539924 53.750297 
C 220.724591 46.785158 202.700785 43.2 184.5 43.2 
C 166.299215 43.2 148.275409 46.785158 131.460076 53.750297 
C 114.644743 60.715436 99.364899 70.925101 86.495 83.795 
C 73.625101 96.664899 63.415436 111.944743 56.450297 128.760076 
C 49.485158 145.575409 45.9 163.599215 45.9 181.8 
C 45.9 200.000785 49.485158 218.024591 56.450297 234.839924 
C 63.415436 251.655257 73.625101 266.935101 86.495 279.805 
C 99.364899 292.674899 114.644743 302.884564 131.460076 309.849703 
C 148.275409 316.814842 166.299215 320.4 184.5 320.4 
C 202.700785 320.4 220.724591 316.814842 237.539924 309.849703 
C 254.355257 302.884564 269.635101 292.674899 282.505 279.805 
C 295.374899 266.935101 305.584564 251.655257 312.549703 234.839924 
C 319.514842 218.024591 323.1 200.000785 323.1 181.8 
M 184.5 181.8 
C 184.5 181.8 184.5 181.8 184.5 181.8 
C 184.5 181.8 184.5 181.8 184.5 181.8 
C 184.5 181.8 184.5 181.8 184.5 181.8 
C 184.5 181.8 184.5 181.8 184.5 181.8 
C 184.5 181.8 184.5 181.8 184.5 181.8 
C 184.5 181.8 184.5 181.8 184.5 181.8 
C 184.5 181.8 184.5 181.8 184.5 181.8 
C 184.5 181.8 184.5 181.8 184.5 181.8 
C 184.5 181.8 184.5 181.8 184.5 181.8 
C 184.5 181.8 184.5 181.8 184.5 181.8 
C 184.5 181.8 184.5 181.8 184.5 181.8 
C 184.5 181.8 184.5 181.8 184.5 181.8 
C 184.5 181.8 184.5 181.8 184.5 181.8 
C 184.5 181.8 184.5 181.8 184.5 181.8 
C 184.5 181.8 184.5 181.8 184.5 181.8 
C 184.5 181.8 184.5 181.8 184.5 181.8 
z
"/>
  </clipPath>
 </defs>
</svg>
